<?xml version="1.0" encoding="UTF-8" standalone="no"?>
<!DOCTYPE svg PUBLIC "-//W3C//DTD SVG 1.1//EN"
 "http://www.w3.org/Graphics/SVG/1.1/DTD/svg11.dtd">
<!-- Generated by graphviz version 2.43.0 (0)
 -->
<!-- Title: G Pages: 1 -->
<svg width="908pt" height="222pt"
 viewBox="0.00 0.00 908.49 222.37" xmlns="http://www.w3.org/2000/svg" xmlns:xlink="http://www.w3.org/1999/xlink">
<g id="graph0" class="graph" transform="scale(1 1) rotate(0) translate(4 218.37)">
<title>G</title>
<polygon fill="white" stroke="transparent" points="-4,4 -4,-218.37 904.49,-218.37 904.49,4 -4,4"/>
<text text-anchor="middle" x="450.24" y="-194.37" font-family="Arial" font-size="20.00">Critical vs Non&#45;critical Telemetry Loss</text>
<!-- baseline -->
<g id="node1" class="node">
<title>baseline</title>
<ellipse fill="#dcfce7" stroke="#334155" cx="67.88" cy="-96.18" rx="67.76" ry="38.37"/>
<text text-anchor="middle" x="67.88" y="-105.38" font-family="Arial" font-size="11.00">S8 Final closure</text>
<text text-anchor="middle" x="67.88" y="-93.38" font-family="Arial" font-size="11.00">SACI=100.0</text>
<text text-anchor="middle" x="67.88" y="-81.38" font-family="Arial" font-size="11.00">Missing=0</text>
</g>
<!-- critical_loss -->
<g id="node2" class="node">
<title>critical_loss</title>
<path fill="#fee2e2" stroke="#334155" d="M394.76,-168.18C394.76,-168.18 271.76,-168.18 271.76,-168.18 265.76,-168.18 259.76,-162.18 259.76,-156.18 259.76,-156.18 259.76,-126.18 259.76,-126.18 259.76,-120.18 265.76,-114.18 271.76,-114.18 271.76,-114.18 394.76,-114.18 394.76,-114.18 400.76,-114.18 406.76,-120.18 406.76,-126.18 406.76,-126.18 406.76,-156.18 406.76,-156.18 406.76,-162.18 400.76,-168.18 394.76,-168.18"/>
<text text-anchor="middle" x="333.26" y="-150.38" font-family="Arial" font-size="11.00">S7A</text>
<text text-anchor="middle" x="333.26" y="-138.38" font-family="Arial" font-size="11.00">Critical DC01 Sysmon loss</text>
<text text-anchor="middle" x="333.26" y="-126.38" font-family="Arial" font-size="11.00">asset=A01 / criticality high</text>
</g>
<!-- baseline&#45;&gt;critical_loss -->
<g id="edge1" class="edge">
<title>baseline&#45;&gt;critical_loss</title>
<path fill="none" stroke="#dc2626" stroke-width="2.3" stroke-dasharray="5,2" d="M114.11,-124.28C114.11,-124.28 252.54,-124.28 252.54,-124.28"/>
<polygon fill="#dc2626" stroke="#dc2626" stroke-width="2.3" points="252.54,-126.73 259.54,-124.28 252.54,-121.83 252.54,-126.73"/>
<text text-anchor="middle" x="192.26" y="-132.98" font-family="Arial" font-size="9.00" fill="#dc2626">fault injection</text>
</g>
<!-- noncritical_loss -->
<g id="node3" class="node">
<title>noncritical_loss</title>
<path fill="#ffedd5" stroke="#334155" d="M405.76,-81.18C405.76,-81.18 260.76,-81.18 260.76,-81.18 254.76,-81.18 248.76,-75.18 248.76,-69.18 248.76,-69.18 248.76,-39.18 248.76,-39.18 248.76,-33.18 254.76,-27.18 260.76,-27.18 260.76,-27.18 405.76,-27.18 405.76,-27.18 411.76,-27.18 417.76,-33.18 417.76,-39.18 417.76,-39.18 417.76,-69.18 417.76,-69.18 417.76,-75.18 411.76,-81.18 405.76,-81.18"/>
<text text-anchor="middle" x="333.26" y="-63.38" font-family="Arial" font-size="11.00">S7B</text>
<text text-anchor="middle" x="333.26" y="-51.38" font-family="Arial" font-size="11.00">Non&#45;critical WS01 Sysmon loss</text>
<text text-anchor="middle" x="333.26" y="-39.38" font-family="Arial" font-size="11.00">asset=A04 / lower criticality</text>
</g>
<!-- baseline&#45;&gt;noncritical_loss -->
<g id="edge2" class="edge">
<title>baseline&#45;&gt;noncritical_loss</title>
<path fill="none" stroke="#ea580c" stroke-width="2.3" stroke-dasharray="5,2" d="M116.87,-69.59C116.87,-69.59 241.56,-69.59 241.56,-69.59"/>
<polygon fill="#ea580c" stroke="#ea580c" stroke-width="2.3" points="241.56,-72.04 248.56,-69.59 241.56,-67.14 241.56,-72.04"/>
<text text-anchor="middle" x="192.26" y="-75.98" font-family="Arial" font-size="9.00" fill="#ea580c">fault injection</text>
</g>
<!-- critical_impact -->
<g id="node4" class="node">
<title>critical_impact</title>
<ellipse fill="#fecaca" stroke="#334155" cx="607.63" cy="-146.18" rx="55.72" ry="38.37"/>
<text text-anchor="middle" x="607.63" y="-155.38" font-family="Arial" font-size="11.00">Impact</text>
<text text-anchor="middle" x="607.63" y="-143.38" font-family="Arial" font-size="11.00">SACI=78.53</text>
<text text-anchor="middle" x="607.63" y="-131.38" font-family="Arial" font-size="11.00">Missing=57</text>
</g>
<!-- critical_loss&#45;&gt;critical_impact -->
<g id="edge3" class="edge">
<title>critical_loss&#45;&gt;critical_impact</title>
<path fill="none" stroke="#dc2626" stroke-width="2.3" d="M406.79,-141.18C406.79,-141.18 545.19,-141.18 545.19,-141.18"/>
<polygon fill="#dc2626" stroke="#dc2626" stroke-width="2.3" points="545.19,-143.63 552.19,-141.18 545.19,-138.73 545.19,-143.63"/>
<text text-anchor="middle" x="484.76" y="-146.98" font-family="Arial" font-size="9.00" fill="#dc2626">score regression</text>
</g>
<!-- noncritical_impact -->
<g id="node5" class="node">
<title>noncritical_impact</title>
<ellipse fill="#fed7aa" stroke="#334155" cx="607.63" cy="-38.18" rx="55.72" ry="38.37"/>
<text text-anchor="middle" x="607.63" y="-47.38" font-family="Arial" font-size="11.00">Impact</text>
<text text-anchor="middle" x="607.63" y="-35.38" font-family="Arial" font-size="11.00">SACI=92.52</text>
<text text-anchor="middle" x="607.63" y="-23.38" font-family="Arial" font-size="11.00">Missing=32</text>
</g>
<!-- noncritical_loss&#45;&gt;noncritical_impact -->
<g id="edge4" class="edge">
<title>noncritical_loss&#45;&gt;noncritical_impact</title>
<path fill="none" stroke="#ea580c" stroke-width="2.3" d="M417.82,-51.78C417.82,-51.78 548.24,-51.78 548.24,-51.78"/>
<polygon fill="#ea580c" stroke="#ea580c" stroke-width="2.3" points="548.24,-54.23 555.24,-51.78 548.24,-49.33 548.24,-54.23"/>
<text text-anchor="middle" x="484.76" y="-45.98" font-family="Arial" font-size="9.00" fill="#ea580c">smaller regression</text>
</g>
<!-- interpretation -->
<g id="node6" class="node">
<title>interpretation</title>
<path fill="#e0f2fe" stroke="#334155" d="M888.49,-118.18C888.49,-118.18 734.49,-118.18 734.49,-118.18 728.49,-118.18 722.49,-112.18 722.49,-106.18 722.49,-106.18 722.49,-76.18 722.49,-76.18 722.49,-70.18 728.49,-64.18 734.49,-64.18 734.49,-64.18 888.49,-64.18 888.49,-64.18 894.49,-64.18 900.49,-70.18 900.49,-76.18 900.49,-76.18 900.49,-106.18 900.49,-106.18 900.49,-112.18 894.49,-118.18 888.49,-118.18"/>
<text text-anchor="middle" x="811.49" y="-100.38" font-family="Arial" font-size="11.00">Interpretation</text>
<text text-anchor="middle" x="811.49" y="-88.38" font-family="Arial" font-size="11.00">Critical asset telemetry loss</text>
<text text-anchor="middle" x="811.49" y="-76.38" font-family="Arial" font-size="11.00">causes stronger score regression</text>
</g>
<!-- critical_impact&#45;&gt;interpretation -->
<g id="edge5" class="edge">
<title>critical_impact&#45;&gt;interpretation</title>
<path fill="none" stroke="#475569" stroke-width="1.4" d="M635.54,-113.09C635.54,-113.09 715.14,-113.09 715.14,-113.09"/>
<polygon fill="#475569" stroke="#475569" stroke-width="1.4" points="715.14,-115.54 722.14,-113.09 715.14,-110.64 715.14,-115.54"/>
</g>
<!-- noncritical_impact&#45;&gt;interpretation -->
<g id="edge6" class="edge">
<title>noncritical_impact&#45;&gt;interpretation</title>
<path fill="none" stroke="#475569" stroke-width="1.4" d="M638.15,-70.28C638.15,-70.28 715.48,-70.28 715.48,-70.28"/>
<polygon fill="#475569" stroke="#475569" stroke-width="1.4" points="715.48,-72.73 722.48,-70.28 715.48,-67.83 715.48,-72.73"/>
</g>
</g>
</svg>
