<?xml version="1.0" encoding="UTF-8" standalone="no"?>
<!DOCTYPE svg PUBLIC "-//W3C//DTD SVG 1.1//EN"
 "http://www.w3.org/Graphics/SVG/1.1/DTD/svg11.dtd">
<!-- Generated by graphviz version 2.43.0 (0)
 -->
<!-- Title: G Pages: 1 -->
<svg width="1607pt" height="290pt"
 viewBox="0.00 0.00 1606.72 290.00" xmlns="http://www.w3.org/2000/svg" xmlns:xlink="http://www.w3.org/1999/xlink">
<g id="graph0" class="graph" transform="scale(1 1) rotate(0) translate(4 286)">
<title>G</title>
<polygon fill="white" stroke="transparent" points="-4,4 -4,-286 1602.72,-286 1602.72,4 -4,4"/>
<text text-anchor="middle" x="799.36" y="-262" font-family="Arial" font-size="20.00">SACI Conceptual Graph Model</text>
<!-- assets -->
<g id="node1" class="node">
<title>assets</title>
<path fill="#dbeafe" stroke="#334155" d="M116,-144C116,-144 12,-144 12,-144 6,-144 0,-138 0,-132 0,-132 0,-114 0,-114 0,-108 6,-102 12,-102 12,-102 116,-102 116,-102 122,-102 128,-108 128,-114 128,-114 128,-132 128,-132 128,-138 122,-144 116,-144"/>
<text text-anchor="middle" x="64" y="-126.2" font-family="Arial" font-size="11.00">Assets</text>
<text text-anchor="middle" x="64" y="-114.2" font-family="Arial" font-size="11.00">DC / endpoint / firewall</text>
</g>
<!-- logsources -->
<g id="node2" class="node">
<title>logsources</title>
<path fill="#ffedd5" stroke="#334155" d="M742,-116C742,-116 509,-116 509,-116 503,-116 497,-110 497,-104 497,-104 497,-86 497,-86 497,-80 503,-74 509,-74 509,-74 742,-74 742,-74 748,-74 754,-80 754,-86 754,-86 754,-104 754,-104 754,-110 748,-116 742,-116"/>
<text text-anchor="middle" x="625.5" y="-98.2" font-family="Arial" font-size="11.00">Log sources</text>
<text text-anchor="middle" x="625.5" y="-86.2" font-family="Arial" font-size="11.00">Security / Sysmon / PowerShell / authlog / firewall</text>
</g>
<!-- assets&#45;&gt;logsources -->
<g id="edge1" class="edge">
<title>assets&#45;&gt;logsources</title>
<path fill="none" stroke="#475569" stroke-width="1.4" d="M128.14,-106.67C128.14,-106.67 489.83,-106.67 489.83,-106.67"/>
<polygon fill="#475569" stroke="#475569" stroke-width="1.4" points="489.83,-109.12 496.83,-106.67 489.83,-104.22 489.83,-109.12"/>
<text text-anchor="middle" x="301.5" y="-96.8" font-family="Arial" font-size="9.00" fill="#475569">emits</text>
</g>
<!-- controls -->
<g id="node3" class="node">
<title>controls</title>
<path fill="#dcfce7" stroke="#334155" d="M354,-189C354,-189 249,-189 249,-189 243,-189 237,-183 237,-177 237,-177 237,-159 237,-159 237,-153 243,-147 249,-147 249,-147 354,-147 354,-147 360,-147 366,-153 366,-159 366,-159 366,-177 366,-177 366,-183 360,-189 354,-189"/>
<text text-anchor="middle" x="301.5" y="-171.2" font-family="Arial" font-size="11.00">Detection controls</text>
<text text-anchor="middle" x="301.5" y="-159.2" font-family="Arial" font-size="11.00">Expected visibility rules</text>
</g>
<!-- assets&#45;&gt;controls -->
<g id="edge3" class="edge">
<title>assets&#45;&gt;controls</title>
<path fill="none" stroke="#475569" stroke-width="1.4" d="M128.14,-129.5C192.05,-129.5 280.72,-129.5 280.72,-129.5 280.72,-129.5 280.72,-139.95 280.72,-139.95"/>
<polygon fill="#475569" stroke="#475569" stroke-width="1.4" points="278.27,-139.95 280.72,-146.95 283.17,-139.95 278.27,-139.95"/>
<text text-anchor="middle" x="182.5" y="-154.8" font-family="Arial" font-size="9.00" fill="#475569">protected by</text>
</g>
<!-- rules -->
<g id="node4" class="node">
<title>rules</title>
<path fill="#fee2e2" stroke="#334155" d="M993,-143C993,-143 923,-143 923,-143 917,-143 911,-137 911,-131 911,-131 911,-113 911,-113 911,-107 917,-101 923,-101 923,-101 993,-101 993,-101 999,-101 1005,-107 1005,-113 1005,-113 1005,-131 1005,-131 1005,-137 999,-143 993,-143"/>
<text text-anchor="middle" x="958" y="-125.2" font-family="Arial" font-size="11.00">Wazuh rules</text>
<text text-anchor="middle" x="958" y="-113.2" font-family="Arial" font-size="11.00">Observed alerts</text>
</g>
<!-- logsources&#45;&gt;rules -->
<g id="edge2" class="edge">
<title>logsources&#45;&gt;rules</title>
<path fill="none" stroke="#475569" stroke-width="1.4" d="M754.05,-108.5C754.05,-108.5 903.66,-108.5 903.66,-108.5"/>
<polygon fill="#475569" stroke="#475569" stroke-width="1.4" points="903.66,-110.95 910.66,-108.5 903.66,-106.05 903.66,-110.95"/>
<text text-anchor="middle" x="832.5" y="-124.8" font-family="Arial" font-size="9.00" fill="#475569">collected by Wazuh</text>
</g>
<!-- controls&#45;&gt;logsources -->
<g id="edge4" class="edge">
<title>controls&#45;&gt;logsources</title>
<path fill="none" stroke="#475569" stroke-width="1.4" d="M323.72,-146.9C323.72,-130.79 323.72,-111.33 323.72,-111.33 323.72,-111.33 489.64,-111.33 489.64,-111.33"/>
<polygon fill="#475569" stroke="#475569" stroke-width="1.4" points="489.64,-113.78 496.64,-111.33 489.64,-108.88 489.64,-113.78"/>
<text text-anchor="middle" x="431.5" y="-150.8" font-family="Arial" font-size="9.00" fill="#475569">uses log source</text>
</g>
<!-- controls&#45;&gt;rules -->
<g id="edge5" class="edge">
<title>controls&#45;&gt;rules</title>
<path fill="none" stroke="#475569" stroke-width="1.4" d="M366.01,-164.13C531.6,-164.13 958.72,-164.13 958.72,-164.13 958.72,-164.13 958.72,-150.07 958.72,-150.07"/>
<polygon fill="#475569" stroke="#475569" stroke-width="1.4" points="961.17,-150.07 958.72,-143.07 956.27,-150.07 961.17,-150.07"/>
<text text-anchor="middle" x="625.5" y="-182.8" font-family="Arial" font-size="9.00" fill="#475569">produces rule</text>
</g>
<!-- mitre -->
<g id="node5" class="node">
<title>mitre</title>
<path fill="#f3e8ff" stroke="#334155" d="M870,-252C870,-252 795,-252 795,-252 789,-252 783,-246 783,-240 783,-240 783,-222 783,-222 783,-216 789,-210 795,-210 795,-210 870,-210 870,-210 876,-210 882,-216 882,-222 882,-222 882,-240 882,-240 882,-246 876,-252 870,-252"/>
<text text-anchor="middle" x="832.5" y="-234.2" font-family="Arial" font-size="11.00">MITRE ATT&amp;CK</text>
<text text-anchor="middle" x="832.5" y="-222.2" font-family="Arial" font-size="11.00">Techniques</text>
</g>
<!-- controls&#45;&gt;mitre -->
<g id="edge6" class="edge">
<title>controls&#45;&gt;mitre</title>
<path fill="none" stroke="#475569" stroke-width="1.4" d="M366.11,-176.57C507.68,-176.57 832.72,-176.57 832.72,-176.57 832.72,-176.57 832.72,-202.8 832.72,-202.8"/>
<polygon fill="#475569" stroke="#475569" stroke-width="1.4" points="830.27,-202.8 832.72,-209.8 835.17,-202.8 830.27,-202.8"/>
<text text-anchor="middle" x="431.5" y="-241.8" font-family="Arial" font-size="9.00" fill="#475569">detects technique</text>
</g>
<!-- metrics -->
<g id="node7" class="node">
<title>metrics</title>
<path fill="#fef9c3" stroke="#334155" d="M1247,-143C1247,-143 1113,-143 1113,-143 1107,-143 1101,-137 1101,-131 1101,-131 1101,-113 1101,-113 1101,-107 1107,-101 1113,-101 1113,-101 1247,-101 1247,-101 1253,-101 1259,-107 1259,-113 1259,-113 1259,-131 1259,-131 1259,-137 1253,-143 1247,-143"/>
<text text-anchor="middle" x="1180" y="-125.2" font-family="Arial" font-size="11.00">SACI metrics</text>
<text text-anchor="middle" x="1180" y="-113.2" font-family="Arial" font-size="11.00">LC / CAC / MDC / CTIC / TF</text>
</g>
<!-- rules&#45;&gt;metrics -->
<g id="edge8" class="edge">
<title>rules&#45;&gt;metrics</title>
<path fill="none" stroke="#475569" stroke-width="1.4" d="M1005.08,-122C1005.08,-122 1093.66,-122 1093.66,-122"/>
<polygon fill="#475569" stroke="#475569" stroke-width="1.4" points="1093.66,-124.45 1100.66,-122 1093.66,-119.55 1093.66,-124.45"/>
<text text-anchor="middle" x="1053" y="-124.8" font-family="Arial" font-size="9.00" fill="#475569">evidence</text>
</g>
<!-- mitre&#45;&gt;metrics -->
<g id="edge9" class="edge">
<title>mitre&#45;&gt;metrics</title>
<path fill="none" stroke="#475569" stroke-width="1.4" d="M882.02,-231C978.16,-231 1180.72,-231 1180.72,-231 1180.72,-231 1180.72,-150.02 1180.72,-150.02"/>
<polygon fill="#475569" stroke="#475569" stroke-width="1.4" points="1183.17,-150.02 1180.72,-143.02 1178.27,-150.02 1183.17,-150.02"/>
<text text-anchor="middle" x="958" y="-217.8" font-family="Arial" font-size="9.00" fill="#475569">coverage</text>
</g>
<!-- cti -->
<g id="node6" class="node">
<title>cti</title>
<path fill="#ccfbf1" stroke="#334155" d="M660.5,-42C660.5,-42 590.5,-42 590.5,-42 584.5,-42 578.5,-36 578.5,-30 578.5,-30 578.5,-12 578.5,-12 578.5,-6 584.5,0 590.5,0 590.5,0 660.5,0 660.5,0 666.5,0 672.5,-6 672.5,-12 672.5,-12 672.5,-30 672.5,-30 672.5,-36 666.5,-42 660.5,-42"/>
<text text-anchor="middle" x="625.5" y="-24.2" font-family="Arial" font-size="11.00">CTI / MISP</text>
<text text-anchor="middle" x="625.5" y="-12.2" font-family="Arial" font-size="11.00">IOC enrichment</text>
</g>
<!-- cti&#45;&gt;rules -->
<g id="edge7" class="edge">
<title>cti&#45;&gt;rules</title>
<path fill="none" stroke="#475569" stroke-width="1.4" d="M672.54,-28C764.39,-28 958.72,-28 958.72,-28 958.72,-28 958.72,-93.67 958.72,-93.67"/>
<polygon fill="#475569" stroke="#475569" stroke-width="1.4" points="956.27,-93.67 958.72,-100.67 961.17,-93.67 956.27,-93.67"/>
<text text-anchor="middle" x="832.5" y="-77.8" font-family="Arial" font-size="9.00" fill="#475569">IOC converted to alert</text>
</g>
<!-- cti&#45;&gt;metrics -->
<g id="edge10" class="edge">
<title>cti&#45;&gt;metrics</title>
<path fill="none" stroke="#475569" stroke-width="1.4" d="M672.84,-14C807.1,-14 1180.72,-14 1180.72,-14 1180.72,-14 1180.72,-93.92 1180.72,-93.92"/>
<polygon fill="#475569" stroke="#475569" stroke-width="1.4" points="1178.27,-93.92 1180.72,-100.92 1183.17,-93.92 1178.27,-93.92"/>
<text text-anchor="middle" x="958" y="-23.8" font-family="Arial" font-size="9.00" fill="#475569">CTI closure</text>
</g>
<!-- score -->
<g id="node8" class="node">
<title>score</title>
<ellipse fill="#e0f2fe" stroke="#334155" cx="1493.36" cy="-122" rx="105.22" ry="29.9"/>
<text text-anchor="middle" x="1493.36" y="-125.2" font-family="Arial" font-size="11.00">SACI score</text>
<text text-anchor="middle" x="1493.36" y="-113.2" font-family="Arial" font-size="11.00">Deterministic visibility score</text>
</g>
<!-- metrics&#45;&gt;score -->
<g id="edge11" class="edge">
<title>metrics&#45;&gt;score</title>
<path fill="none" stroke="#475569" stroke-width="1.4" d="M1259.07,-122C1259.07,-122 1380.96,-122 1380.96,-122"/>
<polygon fill="#475569" stroke="#475569" stroke-width="1.4" points="1380.96,-124.45 1387.96,-122 1380.96,-119.55 1380.96,-124.45"/>
<text text-anchor="middle" x="1323.5" y="-124.8" font-family="Arial" font-size="9.00" fill="#475569">weighted formula</text>
</g>
</g>
</svg>
