<?xml version="1.0" encoding="UTF-8" standalone="no"?>
<!DOCTYPE svg PUBLIC "-//W3C//DTD SVG 1.1//EN"
 "http://www.w3.org/Graphics/SVG/1.1/DTD/svg11.dtd">
<!-- Generated by graphviz version 2.43.0 (0)
 -->
<!-- Title: G Pages: 1 -->
<svg width="1145pt" height="883pt"
 viewBox="0.00 0.00 1145.42 883.00" xmlns="http://www.w3.org/2000/svg" xmlns:xlink="http://www.w3.org/1999/xlink">
<g id="graph0" class="graph" transform="scale(1 1) rotate(0) translate(4 879)">
<title>G</title>
<polygon fill="white" stroke="transparent" points="-4,4 -4,-879 1141.42,-879 1141.42,4 -4,4"/>
<text text-anchor="middle" x="568.71" y="-855" font-family="Arial" font-size="20.00">Final Visibility Closure Evidence Path &#45; S8</text>
<!-- asset -->
<g id="node1" class="node">
<title>asset</title>
<path fill="#dbeafe" stroke="#334155" d="M95,-400C95,-400 12,-400 12,-400 6,-400 0,-394 0,-388 0,-388 0,-370 0,-370 0,-364 6,-358 12,-358 12,-358 95,-358 95,-358 101,-358 107,-364 107,-370 107,-370 107,-388 107,-388 107,-394 101,-400 95,-400"/>
<text text-anchor="middle" x="53.5" y="-382.2" font-family="Arial" font-size="11.00">A04 / WS01</text>
<text text-anchor="middle" x="53.5" y="-370.2" font-family="Arial" font-size="11.00">Windows endpoint</text>
</g>
<!-- security -->
<g id="node2" class="node">
<title>security</title>
<path fill="#ffedd5" stroke="#334155" d="M263.5,-711C263.5,-711 207.5,-711 207.5,-711 201.5,-711 195.5,-705 195.5,-699 195.5,-699 195.5,-687 195.5,-687 195.5,-681 201.5,-675 207.5,-675 207.5,-675 263.5,-675 263.5,-675 269.5,-675 275.5,-681 275.5,-687 275.5,-687 275.5,-699 275.5,-699 275.5,-705 269.5,-711 263.5,-711"/>
<text text-anchor="middle" x="235.5" y="-690.2" font-family="Arial" font-size="11.00">Security logs</text>
</g>
<!-- asset&#45;&gt;security -->
<g id="edge1" class="edge">
<title>asset&#45;&gt;security</title>
<path fill="none" stroke="#475569" stroke-width="1.4" d="M54.42,-400.09C54.42,-470.49 54.42,-693 54.42,-693 54.42,-693 188.31,-693 188.31,-693"/>
<polygon fill="#475569" stroke="#475569" stroke-width="1.4" points="188.31,-695.45 195.31,-693 188.31,-690.55 188.31,-695.45"/>
<text text-anchor="middle" x="147" y="-577.8" font-family="Arial" font-size="9.00" fill="#475569">emits</text>
</g>
<!-- sysmon -->
<g id="node3" class="node">
<title>sysmon</title>
<path fill="#ffedd5" stroke="#334155" d="M263.5,-397C263.5,-397 207.5,-397 207.5,-397 201.5,-397 195.5,-391 195.5,-385 195.5,-385 195.5,-373 195.5,-373 195.5,-367 201.5,-361 207.5,-361 207.5,-361 263.5,-361 263.5,-361 269.5,-361 275.5,-367 275.5,-373 275.5,-373 275.5,-385 275.5,-385 275.5,-391 269.5,-397 263.5,-397"/>
<text text-anchor="middle" x="235.5" y="-376.2" font-family="Arial" font-size="11.00">Sysmon logs</text>
</g>
<!-- asset&#45;&gt;sysmon -->
<g id="edge2" class="edge">
<title>asset&#45;&gt;sysmon</title>
<path fill="none" stroke="#475569" stroke-width="1.4" d="M107.12,-385C107.12,-385 188.26,-385 188.26,-385"/>
<polygon fill="#475569" stroke="#475569" stroke-width="1.4" points="188.26,-387.45 195.26,-385 188.26,-382.55 188.26,-387.45"/>
<text text-anchor="middle" x="147" y="-381.8" font-family="Arial" font-size="9.00" fill="#475569">emits</text>
</g>
<!-- powershell -->
<g id="node4" class="node">
<title>powershell</title>
<path fill="#ffedd5" stroke="#334155" d="M272,-209C272,-209 199,-209 199,-209 193,-209 187,-203 187,-197 187,-197 187,-185 187,-185 187,-179 193,-173 199,-173 199,-173 272,-173 272,-173 278,-173 284,-179 284,-185 284,-185 284,-197 284,-197 284,-203 278,-209 272,-209"/>
<text text-anchor="middle" x="235.5" y="-188.2" font-family="Arial" font-size="11.00">PowerShell logs</text>
</g>
<!-- asset&#45;&gt;powershell -->
<g id="edge3" class="edge">
<title>asset&#45;&gt;powershell</title>
<path fill="none" stroke="#475569" stroke-width="1.4" d="M107.22,-373C145.94,-373 191.42,-373 191.42,-373 191.42,-373 191.42,-216.12 191.42,-216.12"/>
<polygon fill="#475569" stroke="#475569" stroke-width="1.4" points="193.87,-216.12 191.42,-209.12 188.97,-216.12 193.87,-216.12"/>
<text text-anchor="middle" x="147" y="-280.8" font-family="Arial" font-size="9.00" fill="#475569">emits</text>
</g>
<!-- wazuh -->
<g id="node5" class="node">
<title>wazuh</title>
<path fill="#ccfbf1" stroke="#334155" d="M852,-423C852,-423 794,-423 794,-423 788,-423 782,-417 782,-411 782,-411 782,-399 782,-399 782,-393 788,-387 794,-387 794,-387 852,-387 852,-387 858,-387 864,-393 864,-399 864,-399 864,-411 864,-411 864,-417 858,-423 852,-423"/>
<text text-anchor="middle" x="823" y="-402.2" font-family="Arial" font-size="11.00">Wazuh SIEM</text>
</g>
<!-- security&#45;&gt;wazuh -->
<g id="edge4" class="edge">
<title>security&#45;&gt;wazuh</title>
<path fill="none" stroke="#475569" stroke-width="1.4" d="M275.82,-687C407.33,-687 815.42,-687 815.42,-687 815.42,-687 815.42,-430.07 815.42,-430.07"/>
<polygon fill="#475569" stroke="#475569" stroke-width="1.4" points="817.87,-430.07 815.42,-423.07 812.97,-430.07 817.87,-430.07"/>
<text text-anchor="middle" x="532.5" y="-695.8" font-family="Arial" font-size="9.00" fill="#475569">collected</text>
</g>
<!-- control_C023 -->
<g id="node7" class="node">
<title>control_C023</title>
<path fill="#dcfce7" stroke="#334155" d="M464,-796C464,-796 395,-796 395,-796 389,-796 383,-790 383,-784 383,-784 383,-754 383,-754 383,-748 389,-742 395,-742 395,-742 464,-742 464,-742 470,-742 476,-748 476,-754 476,-754 476,-784 476,-784 476,-790 470,-796 464,-796"/>
<text text-anchor="middle" x="429.5" y="-778.2" font-family="Arial" font-size="11.00">C023</text>
<text text-anchor="middle" x="429.5" y="-766.2" font-family="Arial" font-size="11.00">Security control</text>
<text text-anchor="middle" x="429.5" y="-754.2" font-family="Arial" font-size="11.00">seen=1</text>
</g>
<!-- security&#45;&gt;control_C023 -->
<g id="edge7" class="edge">
<title>security&#45;&gt;control_C023</title>
<path fill="none" stroke="#475569" stroke-width="1.4" d="M275.89,-699C332.98,-699 430.42,-699 430.42,-699 430.42,-699 430.42,-734.74 430.42,-734.74"/>
<polygon fill="#475569" stroke="#475569" stroke-width="1.4" points="427.97,-734.74 430.42,-741.74 432.87,-734.74 427.97,-734.74"/>
<text text-anchor="middle" x="329.5" y="-760.8" font-family="Arial" font-size="9.00" fill="#475569">used by</text>
</g>
<!-- sysmon&#45;&gt;wazuh -->
<g id="edge5" class="edge">
<title>sysmon&#45;&gt;wazuh</title>
<path fill="none" stroke="#475569" stroke-width="1.4" d="M275.88,-392.4C275.88,-392.4 774.95,-392.4 774.95,-392.4"/>
<polygon fill="#475569" stroke="#475569" stroke-width="1.4" points="774.95,-394.85 781.95,-392.4 774.95,-389.95 774.95,-394.85"/>
<text text-anchor="middle" x="532.5" y="-349.8" font-family="Arial" font-size="9.00" fill="#475569">collected</text>
</g>
<!-- control_C024 -->
<g id="node10" class="node">
<title>control_C024</title>
<path fill="#dcfce7" stroke="#334155" d="M464,-584C464,-584 395,-584 395,-584 389,-584 383,-578 383,-572 383,-572 383,-542 383,-542 383,-536 389,-530 395,-530 395,-530 464,-530 464,-530 470,-530 476,-536 476,-542 476,-542 476,-572 476,-572 476,-578 470,-584 464,-584"/>
<text text-anchor="middle" x="429.5" y="-566.2" font-family="Arial" font-size="11.00">C024</text>
<text text-anchor="middle" x="429.5" y="-554.2" font-family="Arial" font-size="11.00">Sysmon control</text>
<text text-anchor="middle" x="429.5" y="-542.2" font-family="Arial" font-size="11.00">seen=1</text>
</g>
<!-- sysmon&#45;&gt;control_C024 -->
<g id="edge12" class="edge">
<title>sysmon&#45;&gt;control_C024</title>
<path fill="none" stroke="#475569" stroke-width="1.4" d="M236.42,-397.05C236.42,-442.3 236.42,-557 236.42,-557 236.42,-557 375.76,-557 375.76,-557"/>
<polygon fill="#475569" stroke="#475569" stroke-width="1.4" points="375.76,-559.45 382.76,-557 375.76,-554.55 375.76,-559.45"/>
<text text-anchor="middle" x="329.5" y="-510.8" font-family="Arial" font-size="9.00" fill="#475569">used by</text>
</g>
<!-- control_C025 -->
<g id="node13" class="node">
<title>control_C025</title>
<path fill="#dcfce7" stroke="#334155" d="M464,-298C464,-298 395,-298 395,-298 389,-298 383,-292 383,-286 383,-286 383,-256 383,-256 383,-250 389,-244 395,-244 395,-244 464,-244 464,-244 470,-244 476,-250 476,-256 476,-256 476,-286 476,-286 476,-292 470,-298 464,-298"/>
<text text-anchor="middle" x="429.5" y="-280.2" font-family="Arial" font-size="11.00">C025</text>
<text text-anchor="middle" x="429.5" y="-268.2" font-family="Arial" font-size="11.00">Sysmon control</text>
<text text-anchor="middle" x="429.5" y="-256.2" font-family="Arial" font-size="11.00">seen=1</text>
</g>
<!-- sysmon&#45;&gt;control_C025 -->
<g id="edge17" class="edge">
<title>sysmon&#45;&gt;control_C025</title>
<path fill="none" stroke="#475569" stroke-width="1.4" d="M275.65,-374C328.41,-374 414.42,-374 414.42,-374 414.42,-374 414.42,-305.06 414.42,-305.06"/>
<polygon fill="#475569" stroke="#475569" stroke-width="1.4" points="416.87,-305.06 414.42,-298.06 411.97,-305.06 416.87,-305.06"/>
<text text-anchor="middle" x="329.5" y="-295.8" font-family="Arial" font-size="9.00" fill="#475569">used by</text>
</g>
<!-- control_C027 -->
<g id="node19" class="node">
<title>control_C027</title>
<path fill="#dcfce7" stroke="#334155" d="M464,-450C464,-450 395,-450 395,-450 389,-450 383,-444 383,-438 383,-438 383,-408 383,-408 383,-402 389,-396 395,-396 395,-396 464,-396 464,-396 470,-396 476,-402 476,-408 476,-408 476,-438 476,-438 476,-444 470,-450 464,-450"/>
<text text-anchor="middle" x="429.5" y="-432.2" font-family="Arial" font-size="11.00">C027</text>
<text text-anchor="middle" x="429.5" y="-420.2" font-family="Arial" font-size="11.00">Sysmon control</text>
<text text-anchor="middle" x="429.5" y="-408.2" font-family="Arial" font-size="11.00">seen=1</text>
</g>
<!-- sysmon&#45;&gt;control_C027 -->
<g id="edge27" class="edge">
<title>sysmon&#45;&gt;control_C027</title>
<path fill="none" stroke="#475569" stroke-width="1.4" d="M275.97,-394.2C336.98,-394.2 445.42,-394.2 445.42,-394.2 445.42,-394.2 445.42,-394.35 445.42,-394.35"/>
<polygon fill="#475569" stroke="#475569" stroke-width="1.4" points="442.97,-388.75 445.42,-395.75 447.87,-388.75 442.97,-388.75"/>
<text text-anchor="middle" x="329.5" y="-414.8" font-family="Arial" font-size="9.00" fill="#475569">used by</text>
</g>
<!-- powershell&#45;&gt;wazuh -->
<g id="edge6" class="edge">
<title>powershell&#45;&gt;wazuh</title>
<path fill="none" stroke="#475569" stroke-width="1.4" d="M280.42,-209.07C280.42,-258.2 280.42,-390.6 280.42,-390.6 280.42,-390.6 774.77,-390.6 774.77,-390.6"/>
<polygon fill="#475569" stroke="#475569" stroke-width="1.4" points="774.77,-393.05 781.77,-390.6 774.77,-388.15 774.77,-393.05"/>
<text text-anchor="middle" x="532.5" y="-193.8" font-family="Arial" font-size="9.00" fill="#475569">collected</text>
</g>
<!-- control_C026 -->
<g id="node16" class="node">
<title>control_C026</title>
<path fill="#dcfce7" stroke="#334155" d="M472,-90C472,-90 387,-90 387,-90 381,-90 375,-84 375,-78 375,-78 375,-48 375,-48 375,-42 381,-36 387,-36 387,-36 472,-36 472,-36 478,-36 484,-42 484,-48 484,-48 484,-78 484,-78 484,-84 478,-90 472,-90"/>
<text text-anchor="middle" x="429.5" y="-72.2" font-family="Arial" font-size="11.00">C026</text>
<text text-anchor="middle" x="429.5" y="-60.2" font-family="Arial" font-size="11.00">PowerShell control</text>
<text text-anchor="middle" x="429.5" y="-48.2" font-family="Arial" font-size="11.00">seen=1</text>
</g>
<!-- powershell&#45;&gt;control_C026 -->
<g id="edge22" class="edge">
<title>powershell&#45;&gt;control_C026</title>
<path fill="none" stroke="#475569" stroke-width="1.4" d="M284.23,-191C325.98,-191 379.42,-191 379.42,-191 379.42,-191 379.42,-97.15 379.42,-97.15"/>
<polygon fill="#475569" stroke="#475569" stroke-width="1.4" points="381.87,-97.15 379.42,-90.15 376.97,-97.15 381.87,-97.15"/>
<text text-anchor="middle" x="329.5" y="-113.8" font-family="Arial" font-size="9.00" fill="#475569">used by</text>
</g>
<!-- saci -->
<g id="node6" class="node">
<title>saci</title>
<ellipse fill="#e0f2fe" stroke="#334155" cx="1066.71" cy="-460" rx="70.92" ry="29.9"/>
<text text-anchor="middle" x="1066.71" y="-463.2" font-family="Arial" font-size="11.00">SACI=100.0</text>
<text text-anchor="middle" x="1066.71" y="-451.2" font-family="Arial" font-size="11.00">Missing edges=0</text>
</g>
<!-- wazuh&#45;&gt;saci -->
<g id="edge32" class="edge">
<title>wazuh&#45;&gt;saci</title>
<path fill="none" stroke="#475569" stroke-width="1.4" d="M848.42,-423.3C848.42,-429.15 848.42,-434.15 848.42,-434.15 848.42,-434.15 1024.64,-434.15 1024.64,-434.15"/>
<polygon fill="#475569" stroke="#475569" stroke-width="1.4" points="1024.64,-436.6 1031.64,-434.15 1024.64,-431.7 1024.64,-436.6"/>
<text text-anchor="middle" x="930" y="-446.8" font-family="Arial" font-size="9.00" fill="#475569">LC/CAC evidence</text>
</g>
<!-- rule_110240 -->
<g id="node8" class="node">
<title>rule_110240</title>
<path fill="#fee2e2" stroke="#334155" d="M642,-784C642,-784 593,-784 593,-784 587,-784 581,-778 581,-772 581,-772 581,-754 581,-754 581,-748 587,-742 593,-742 593,-742 642,-742 642,-742 648,-742 654,-748 654,-754 654,-754 654,-772 654,-772 654,-778 648,-784 642,-784"/>
<text text-anchor="middle" x="617.5" y="-766.2" font-family="Arial" font-size="11.00">Wazuh rule</text>
<text text-anchor="middle" x="617.5" y="-754.2" font-family="Arial" font-size="11.00">110240</text>
</g>
<!-- control_C023&#45;&gt;rule_110240 -->
<g id="edge8" class="edge">
<title>control_C023&#45;&gt;rule_110240</title>
<path fill="none" stroke="#475569" stroke-width="1.4" d="M476.46,-763C476.46,-763 573.86,-763 573.86,-763"/>
<polygon fill="#475569" stroke="#475569" stroke-width="1.4" points="573.86,-765.45 580.86,-763 573.86,-760.55 573.86,-765.45"/>
<text text-anchor="middle" x="532.5" y="-768.8" font-family="Arial" font-size="9.00" fill="#475569">produces</text>
</g>
<!-- mitre_T1078 -->
<g id="node9" class="node">
<title>mitre_T1078</title>
<path fill="#f3e8ff" stroke="#334155" d="M733,-845C733,-845 703,-845 703,-845 697,-845 691,-839 691,-833 691,-833 691,-821 691,-821 691,-815 697,-809 703,-809 703,-809 733,-809 733,-809 739,-809 745,-815 745,-821 745,-821 745,-833 745,-833 745,-839 739,-845 733,-845"/>
<text text-anchor="middle" x="718" y="-824.2" font-family="Arial" font-size="11.00">T1078</text>
</g>
<!-- control_C023&#45;&gt;mitre_T1078 -->
<g id="edge10" class="edge">
<title>control_C023&#45;&gt;mitre_T1078</title>
<path fill="none" stroke="#475569" stroke-width="1.4" d="M430.42,-796.3C430.42,-811.35 430.42,-827 430.42,-827 430.42,-827 683.95,-827 683.95,-827"/>
<polygon fill="#475569" stroke="#475569" stroke-width="1.4" points="683.95,-829.45 690.95,-827 683.95,-824.55 683.95,-829.45"/>
<text text-anchor="middle" x="532.5" y="-835.8" font-family="Arial" font-size="9.00" fill="#475569">maps to</text>
</g>
<!-- rule_110240&#45;&gt;wazuh -->
<g id="edge9" class="edge">
<title>rule_110240&#45;&gt;wazuh</title>
<path fill="none" stroke="#475569" stroke-width="1.4" d="M654.27,-752C715.44,-752 831.42,-752 831.42,-752 831.42,-752 831.42,-430.17 831.42,-430.17"/>
<polygon fill="#475569" stroke="#475569" stroke-width="1.4" points="833.87,-430.17 831.42,-423.17 828.97,-430.17 833.87,-430.17"/>
<text text-anchor="middle" x="718" y="-749.8" font-family="Arial" font-size="9.00" fill="#475569">alerted in</text>
</g>
<!-- mitre_T1078&#45;&gt;saci -->
<g id="edge11" class="edge">
<title>mitre_T1078&#45;&gt;saci</title>
<path fill="none" stroke="#475569" stroke-width="1.4" d="M745.08,-827C830.78,-827 1090.42,-827 1090.42,-827 1090.42,-827 1090.42,-495.19 1090.42,-495.19"/>
<polygon fill="#475569" stroke="#475569" stroke-width="1.4" points="1092.87,-495.19 1090.42,-488.19 1087.97,-495.19 1092.87,-495.19"/>
<text text-anchor="middle" x="823" y="-776.8" font-family="Arial" font-size="9.00" fill="#475569">MDC evidence</text>
</g>
<!-- rule_110241 -->
<g id="node11" class="node">
<title>rule_110241</title>
<path fill="#fee2e2" stroke="#334155" d="M642,-578C642,-578 593,-578 593,-578 587,-578 581,-572 581,-566 581,-566 581,-548 581,-548 581,-542 587,-536 593,-536 593,-536 642,-536 642,-536 648,-536 654,-542 654,-548 654,-548 654,-566 654,-566 654,-572 648,-578 642,-578"/>
<text text-anchor="middle" x="617.5" y="-560.2" font-family="Arial" font-size="11.00">Wazuh rule</text>
<text text-anchor="middle" x="617.5" y="-548.2" font-family="Arial" font-size="11.00">110241</text>
</g>
<!-- control_C024&#45;&gt;rule_110241 -->
<g id="edge13" class="edge">
<title>control_C024&#45;&gt;rule_110241</title>
<path fill="none" stroke="#475569" stroke-width="1.4" d="M476.46,-550C476.46,-550 573.86,-550 573.86,-550"/>
<polygon fill="#475569" stroke="#475569" stroke-width="1.4" points="573.86,-552.45 580.86,-550 573.86,-547.55 573.86,-552.45"/>
<text text-anchor="middle" x="532.5" y="-559.8" font-family="Arial" font-size="9.00" fill="#475569">produces</text>
</g>
<!-- mitre_T1087 -->
<g id="node12" class="node">
<title>mitre_T1087</title>
<path fill="#f3e8ff" stroke="#334155" d="M733,-798C733,-798 703,-798 703,-798 697,-798 691,-792 691,-786 691,-786 691,-774 691,-774 691,-768 697,-762 703,-762 703,-762 733,-762 733,-762 739,-762 745,-768 745,-774 745,-774 745,-786 745,-786 745,-792 739,-798 733,-798"/>
<text text-anchor="middle" x="718" y="-777.2" font-family="Arial" font-size="11.00">T1087</text>
</g>
<!-- control_C024&#45;&gt;mitre_T1087 -->
<g id="edge15" class="edge">
<title>control_C024&#45;&gt;mitre_T1087</title>
<path fill="none" stroke="#475569" stroke-width="1.4" d="M476.29,-564C503.88,-564 533.42,-564 533.42,-564 533.42,-564 533.42,-790 533.42,-790 533.42,-790 683.76,-790 683.76,-790"/>
<polygon fill="#475569" stroke="#475569" stroke-width="1.4" points="683.76,-792.45 690.76,-790 683.76,-787.55 683.76,-792.45"/>
<text text-anchor="middle" x="532.5" y="-629.8" font-family="Arial" font-size="9.00" fill="#475569">maps to</text>
</g>
<!-- rule_110241&#45;&gt;wazuh -->
<g id="edge14" class="edge">
<title>rule_110241&#45;&gt;wazuh</title>
<path fill="none" stroke="#475569" stroke-width="1.4" d="M654.11,-557C706.98,-557 798.42,-557 798.42,-557 798.42,-557 798.42,-430.03 798.42,-430.03"/>
<polygon fill="#475569" stroke="#475569" stroke-width="1.4" points="800.87,-430.03 798.42,-423.03 795.97,-430.03 800.87,-430.03"/>
<text text-anchor="middle" x="718" y="-552.8" font-family="Arial" font-size="9.00" fill="#475569">alerted in</text>
</g>
<!-- mitre_T1087&#45;&gt;saci -->
<g id="edge16" class="edge">
<title>mitre_T1087&#45;&gt;saci</title>
<path fill="none" stroke="#475569" stroke-width="1.4" d="M745.19,-780C823.4,-780 1043.42,-780 1043.42,-780 1043.42,-780 1043.42,-495.12 1043.42,-495.12"/>
<polygon fill="#475569" stroke="#475569" stroke-width="1.4" points="1045.87,-495.12 1043.42,-488.12 1040.97,-495.12 1045.87,-495.12"/>
<text text-anchor="middle" x="823" y="-656.8" font-family="Arial" font-size="9.00" fill="#475569">MDC evidence</text>
</g>
<!-- rule_110242 -->
<g id="node14" class="node">
<title>rule_110242</title>
<path fill="#fee2e2" stroke="#334155" d="M642,-298C642,-298 593,-298 593,-298 587,-298 581,-292 581,-286 581,-286 581,-268 581,-268 581,-262 587,-256 593,-256 593,-256 642,-256 642,-256 648,-256 654,-262 654,-268 654,-268 654,-286 654,-286 654,-292 648,-298 642,-298"/>
<text text-anchor="middle" x="617.5" y="-280.2" font-family="Arial" font-size="11.00">Wazuh rule</text>
<text text-anchor="middle" x="617.5" y="-268.2" font-family="Arial" font-size="11.00">110242</text>
</g>
<!-- control_C025&#45;&gt;rule_110242 -->
<g id="edge18" class="edge">
<title>control_C025&#45;&gt;rule_110242</title>
<path fill="none" stroke="#475569" stroke-width="1.4" d="M476.46,-277C476.46,-277 573.86,-277 573.86,-277"/>
<polygon fill="#475569" stroke="#475569" stroke-width="1.4" points="573.86,-279.45 580.86,-277 573.86,-274.55 573.86,-279.45"/>
<text text-anchor="middle" x="532.5" y="-279.8" font-family="Arial" font-size="9.00" fill="#475569">produces</text>
</g>
<!-- mitre_T1016 -->
<g id="node15" class="node">
<title>mitre_T1016</title>
<path fill="#f3e8ff" stroke="#334155" d="M838,-288C838,-288 808,-288 808,-288 802,-288 796,-282 796,-276 796,-276 796,-264 796,-264 796,-258 802,-252 808,-252 808,-252 838,-252 838,-252 844,-252 850,-258 850,-264 850,-264 850,-276 850,-276 850,-282 844,-288 838,-288"/>
<text text-anchor="middle" x="823" y="-267.2" font-family="Arial" font-size="11.00">T1016</text>
</g>
<!-- control_C025&#45;&gt;mitre_T1016 -->
<g id="edge20" class="edge">
<title>control_C025&#45;&gt;mitre_T1016</title>
<path fill="none" stroke="#475569" stroke-width="1.4" d="M476.23,-248C580.58,-248 823.42,-248 823.42,-248 823.42,-248 823.42,-248.38 823.42,-248.38"/>
<polygon fill="#475569" stroke="#475569" stroke-width="1.4" points="820.97,-244.83 823.42,-251.83 825.87,-244.83 820.97,-244.83"/>
<text text-anchor="middle" x="617.5" y="-150.8" font-family="Arial" font-size="9.00" fill="#475569">maps to</text>
</g>
<!-- rule_110242&#45;&gt;wazuh -->
<g id="edge19" class="edge">
<title>rule_110242&#45;&gt;wazuh</title>
<path fill="none" stroke="#475569" stroke-width="1.4" d="M654.38,-293C705.96,-293 793.42,-293 793.42,-293 793.42,-293 793.42,-379.51 793.42,-379.51"/>
<polygon fill="#475569" stroke="#475569" stroke-width="1.4" points="790.97,-379.51 793.42,-386.51 795.87,-379.51 790.97,-379.51"/>
<text text-anchor="middle" x="718" y="-303.8" font-family="Arial" font-size="9.00" fill="#475569">alerted in</text>
</g>
<!-- mitre_T1016&#45;&gt;saci -->
<g id="edge21" class="edge">
<title>mitre_T1016&#45;&gt;saci</title>
<path fill="none" stroke="#475569" stroke-width="1.4" d="M850.03,-270C908.89,-270 1043.42,-270 1043.42,-270 1043.42,-270 1043.42,-424.56 1043.42,-424.56"/>
<polygon fill="#475569" stroke="#475569" stroke-width="1.4" points="1040.97,-424.56 1043.42,-431.56 1045.87,-424.56 1040.97,-424.56"/>
<text text-anchor="middle" x="930" y="-376.8" font-family="Arial" font-size="9.00" fill="#475569">MDC evidence</text>
</g>
<!-- rule_110243 -->
<g id="node17" class="node">
<title>rule_110243</title>
<path fill="#fee2e2" stroke="#334155" d="M642,-84C642,-84 593,-84 593,-84 587,-84 581,-78 581,-72 581,-72 581,-54 581,-54 581,-48 587,-42 593,-42 593,-42 642,-42 642,-42 648,-42 654,-48 654,-54 654,-54 654,-72 654,-72 654,-78 648,-84 642,-84"/>
<text text-anchor="middle" x="617.5" y="-66.2" font-family="Arial" font-size="11.00">Wazuh rule</text>
<text text-anchor="middle" x="617.5" y="-54.2" font-family="Arial" font-size="11.00">110243</text>
</g>
<!-- control_C026&#45;&gt;rule_110243 -->
<g id="edge23" class="edge">
<title>control_C026&#45;&gt;rule_110243</title>
<path fill="none" stroke="#475569" stroke-width="1.4" d="M484.13,-63C484.13,-63 573.89,-63 573.89,-63"/>
<polygon fill="#475569" stroke="#475569" stroke-width="1.4" points="573.89,-65.45 580.89,-63 573.89,-60.55 573.89,-65.45"/>
<text text-anchor="middle" x="532.5" y="-65.8" font-family="Arial" font-size="9.00" fill="#475569">produces</text>
</g>
<!-- mitre_T1059.001 -->
<g id="node18" class="node">
<title>mitre_T1059.001</title>
<path fill="#f3e8ff" stroke="#334155" d="M846,-86C846,-86 800,-86 800,-86 794,-86 788,-80 788,-74 788,-74 788,-62 788,-62 788,-56 794,-50 800,-50 800,-50 846,-50 846,-50 852,-50 858,-56 858,-62 858,-62 858,-74 858,-74 858,-80 852,-86 846,-86"/>
<text text-anchor="middle" x="823" y="-65.2" font-family="Arial" font-size="11.00">T1059.001</text>
</g>
<!-- control_C026&#45;&gt;mitre_T1059.001 -->
<g id="edge25" class="edge">
<title>control_C026&#45;&gt;mitre_T1059.001</title>
<path fill="none" stroke="#475569" stroke-width="1.4" d="M480.42,-90.07C480.42,-109.22 480.42,-131.5 480.42,-131.5 480.42,-131.5 791.42,-131.5 791.42,-131.5 791.42,-131.5 791.42,-93.03 791.42,-93.03"/>
<polygon fill="#475569" stroke="#475569" stroke-width="1.4" points="793.87,-93.03 791.42,-86.03 788.97,-93.03 793.87,-93.03"/>
<text text-anchor="middle" x="617.5" y="-2.8" font-family="Arial" font-size="9.00" fill="#475569">maps to</text>
</g>
<!-- rule_110243&#45;&gt;wazuh -->
<g id="edge24" class="edge">
<title>rule_110243&#45;&gt;wazuh</title>
<path fill="none" stroke="#475569" stroke-width="1.4" d="M654.12,-67C662.72,-67 669.42,-67 669.42,-67 669.42,-67 669.42,-388.8 669.42,-388.8 669.42,-388.8 774.84,-388.8 774.84,-388.8"/>
<polygon fill="#475569" stroke="#475569" stroke-width="1.4" points="774.84,-391.25 781.84,-388.8 774.84,-386.35 774.84,-391.25"/>
<text text-anchor="middle" x="718" y="-204.8" font-family="Arial" font-size="9.00" fill="#475569">alerted in</text>
</g>
<!-- mitre_T1059.001&#45;&gt;saci -->
<g id="edge26" class="edge">
<title>mitre_T1059.001&#45;&gt;saci</title>
<path fill="none" stroke="#475569" stroke-width="1.4" d="M858.24,-68C930.85,-68 1090.42,-68 1090.42,-68 1090.42,-68 1090.42,-424.81 1090.42,-424.81"/>
<polygon fill="#475569" stroke="#475569" stroke-width="1.4" points="1087.97,-424.81 1090.42,-431.81 1092.87,-424.81 1087.97,-424.81"/>
<text text-anchor="middle" x="930" y="-283.8" font-family="Arial" font-size="9.00" fill="#475569">MDC evidence</text>
</g>
<!-- rule_110244 -->
<g id="node20" class="node">
<title>rule_110244</title>
<path fill="#fee2e2" stroke="#334155" d="M642,-438C642,-438 593,-438 593,-438 587,-438 581,-432 581,-426 581,-426 581,-408 581,-408 581,-402 587,-396 593,-396 593,-396 642,-396 642,-396 648,-396 654,-402 654,-408 654,-408 654,-426 654,-426 654,-432 648,-438 642,-438"/>
<text text-anchor="middle" x="617.5" y="-420.2" font-family="Arial" font-size="11.00">Wazuh rule</text>
<text text-anchor="middle" x="617.5" y="-408.2" font-family="Arial" font-size="11.00">110244</text>
</g>
<!-- control_C027&#45;&gt;rule_110244 -->
<g id="edge28" class="edge">
<title>control_C027&#45;&gt;rule_110244</title>
<path fill="none" stroke="#475569" stroke-width="1.4" d="M476.46,-417C476.46,-417 573.86,-417 573.86,-417"/>
<polygon fill="#475569" stroke="#475569" stroke-width="1.4" points="573.86,-419.45 580.86,-417 573.86,-414.55 573.86,-419.45"/>
<text text-anchor="middle" x="532.5" y="-422.8" font-family="Arial" font-size="9.00" fill="#475569">produces</text>
</g>
<!-- mitre_T1071.004 -->
<g id="node21" class="node">
<title>mitre_T1071.004</title>
<path fill="#f3e8ff" stroke="#334155" d="M741,-505C741,-505 695,-505 695,-505 689,-505 683,-499 683,-493 683,-493 683,-481 683,-481 683,-475 689,-469 695,-469 695,-469 741,-469 741,-469 747,-469 753,-475 753,-481 753,-481 753,-493 753,-493 753,-499 747,-505 741,-505"/>
<text text-anchor="middle" x="718" y="-484.2" font-family="Arial" font-size="11.00">T1071.004</text>
</g>
<!-- control_C027&#45;&gt;mitre_T1071.004 -->
<g id="edge30" class="edge">
<title>control_C027&#45;&gt;mitre_T1071.004</title>
<path fill="none" stroke="#475569" stroke-width="1.4" d="M476.24,-444C558.01,-444 718.42,-444 718.42,-444 718.42,-444 718.42,-461.51 718.42,-461.51"/>
<polygon fill="#475569" stroke="#475569" stroke-width="1.4" points="715.97,-461.51 718.42,-468.51 720.87,-461.51 715.97,-461.51"/>
<text text-anchor="middle" x="532.5" y="-489.8" font-family="Arial" font-size="9.00" fill="#475569">maps to</text>
</g>
<!-- rule_110244&#45;&gt;wazuh -->
<g id="edge29" class="edge">
<title>rule_110244&#45;&gt;wazuh</title>
<path fill="none" stroke="#475569" stroke-width="1.4" d="M654.24,-409.5C654.24,-409.5 774.99,-409.5 774.99,-409.5"/>
<polygon fill="#475569" stroke="#475569" stroke-width="1.4" points="774.99,-411.95 781.99,-409.5 774.99,-407.05 774.99,-411.95"/>
<text text-anchor="middle" x="718" y="-413.8" font-family="Arial" font-size="9.00" fill="#475569">alerted in</text>
</g>
<!-- mitre_T1071.004&#45;&gt;saci -->
<g id="edge31" class="edge">
<title>mitre_T1071.004&#45;&gt;saci</title>
<path fill="none" stroke="#475569" stroke-width="1.4" d="M753.03,-479.35C753.03,-479.35 1006,-479.35 1006,-479.35"/>
<polygon fill="#475569" stroke="#475569" stroke-width="1.4" points="1006,-481.8 1013,-479.35 1006,-476.9 1006,-481.8"/>
<text text-anchor="middle" x="823" y="-489.8" font-family="Arial" font-size="9.00" fill="#475569">MDC evidence</text>
</g>
</g>
</svg>
