<?xml version="1.0" encoding="UTF-8" standalone="no"?>
<!DOCTYPE svg PUBLIC "-//W3C//DTD SVG 1.1//EN"
 "http://www.w3.org/Graphics/SVG/1.1/DTD/svg11.dtd">
<!-- Generated by graphviz version 2.43.0 (0)
 -->
<!-- Title: G Pages: 1 -->
<svg width="1303pt" height="906pt"
 viewBox="0.00 0.00 1302.97 906.00" xmlns="http://www.w3.org/2000/svg" xmlns:xlink="http://www.w3.org/1999/xlink">
<g id="graph0" class="graph" transform="scale(1 1) rotate(0) translate(4 902)">
<title>G</title>
<polygon fill="white" stroke="transparent" points="-4,4 -4,-902 1298.97,-902 1298.97,4 -4,4"/>
<text text-anchor="middle" x="647.48" y="-878" font-family="Arial" font-size="20.00">Critical DC01 Sysmon Loss &#45; Missing Visibility Path</text>
<!-- asset -->
<g id="node1" class="node">
<title>asset</title>
<path fill="#dbeafe" stroke="#334155" d="M65,-459C65,-459 12,-459 12,-459 6,-459 0,-453 0,-447 0,-447 0,-429 0,-429 0,-423 6,-417 12,-417 12,-417 65,-417 65,-417 71,-417 77,-423 77,-429 77,-429 77,-447 77,-447 77,-453 71,-459 65,-459"/>
<text text-anchor="middle" x="38.5" y="-441.2" font-family="Arial" font-size="11.00">A01 / DC01</text>
<text text-anchor="middle" x="38.5" y="-429.2" font-family="Arial" font-size="11.00">critical asset</text>
</g>
<!-- lost_source -->
<g id="node2" class="node">
<title>lost_source</title>
<path fill="#fecaca" stroke="#dc2626" d="M326,-459C326,-459 259,-459 259,-459 253,-459 247,-453 247,-447 247,-447 247,-429 247,-429 247,-423 253,-417 259,-417 259,-417 326,-417 326,-417 332,-417 338,-423 338,-429 338,-429 338,-447 338,-447 338,-453 332,-459 326,-459"/>
<text text-anchor="middle" x="292.5" y="-441.2" font-family="Arial" font-size="11.00">Lost log source</text>
<text text-anchor="middle" x="292.5" y="-429.2" font-family="Arial" font-size="11.00">Sysmon</text>
</g>
<!-- asset&#45;&gt;lost_source -->
<g id="edge1" class="edge">
<title>asset&#45;&gt;lost_source</title>
<path fill="none" stroke="#dc2626" stroke-width="2.5" stroke-dasharray="5,2" d="M77.08,-438C77.08,-438 239.67,-438 239.67,-438"/>
<polygon fill="#dc2626" stroke="#dc2626" stroke-width="2.5" points="239.67,-440.45 246.67,-438 239.67,-435.55 239.67,-440.45"/>
<text text-anchor="middle" x="162" y="-440.8" font-family="Arial" font-size="9.00" fill="#dc2626">expected telemetry missing</text>
</g>
<!-- wazuh -->
<g id="node3" class="node">
<title>wazuh</title>
<path fill="#ccfbf1" stroke="#334155" d="M1036,-459C1036,-459 930,-459 930,-459 924,-459 918,-453 918,-447 918,-447 918,-429 918,-429 918,-423 924,-417 930,-417 930,-417 1036,-417 1036,-417 1042,-417 1048,-423 1048,-429 1048,-429 1048,-447 1048,-447 1048,-453 1042,-459 1036,-459"/>
<text text-anchor="middle" x="983" y="-441.2" font-family="Arial" font-size="11.00">Wazuh SIEM</text>
<text text-anchor="middle" x="983" y="-429.2" font-family="Arial" font-size="11.00">missing expected alerts</text>
</g>
<!-- lost_source&#45;&gt;wazuh -->
<g id="edge2" class="edge">
<title>lost_source&#45;&gt;wazuh</title>
<path fill="none" stroke="#dc2626" stroke-width="2.5" stroke-dasharray="5,2" d="M338.07,-431C338.07,-431 910.81,-431 910.81,-431"/>
<polygon fill="#dc2626" stroke="#dc2626" stroke-width="2.5" points="910.81,-433.45 917.81,-431 910.81,-428.55 910.81,-433.45"/>
<text text-anchor="middle" x="605.5" y="-440.8" font-family="Arial" font-size="9.00" fill="#dc2626">not collected</text>
</g>
<!-- control_C001 -->
<g id="node5" class="node">
<title>control_C001</title>
<path fill="#fecaca" stroke="#dc2626" d="M524,-809C524,-809 458,-809 458,-809 452,-809 446,-803 446,-797 446,-797 446,-779 446,-779 446,-773 452,-767 458,-767 458,-767 524,-767 524,-767 530,-767 536,-773 536,-779 536,-779 536,-797 536,-797 536,-803 530,-809 524,-809"/>
<text text-anchor="middle" x="491" y="-791.2" font-family="Arial" font-size="11.00">C001</text>
<text text-anchor="middle" x="491" y="-779.2" font-family="Arial" font-size="11.00">control seen=0</text>
</g>
<!-- lost_source&#45;&gt;control_C001 -->
<g id="edge3" class="edge">
<title>lost_source&#45;&gt;control_C001</title>
<path fill="none" stroke="#dc2626" stroke-width="2.2" stroke-dasharray="5,2" d="M277.97,-459.11C277.97,-534.78 277.97,-788 277.97,-788 277.97,-788 438.82,-788 438.82,-788"/>
<polygon fill="#dc2626" stroke="#dc2626" stroke-width="2.2" points="438.82,-790.45 445.82,-788 438.82,-785.55 438.82,-790.45"/>
<text text-anchor="middle" x="392" y="-701.8" font-family="Arial" font-size="9.00" fill="#dc2626">uses source</text>
</g>
<!-- control_C002 -->
<g id="node8" class="node">
<title>control_C002</title>
<path fill="#fecaca" stroke="#dc2626" d="M524,-603C524,-603 458,-603 458,-603 452,-603 446,-597 446,-591 446,-591 446,-573 446,-573 446,-567 452,-561 458,-561 458,-561 524,-561 524,-561 530,-561 536,-567 536,-573 536,-573 536,-591 536,-591 536,-597 530,-603 524,-603"/>
<text text-anchor="middle" x="491" y="-585.2" font-family="Arial" font-size="11.00">C002</text>
<text text-anchor="middle" x="491" y="-573.2" font-family="Arial" font-size="11.00">control seen=0</text>
</g>
<!-- lost_source&#45;&gt;control_C002 -->
<g id="edge8" class="edge">
<title>lost_source&#45;&gt;control_C002</title>
<path fill="none" stroke="#dc2626" stroke-width="2.2" stroke-dasharray="5,2" d="M307.97,-459.25C307.97,-499.3 307.97,-582 307.97,-582 307.97,-582 438.76,-582 438.76,-582"/>
<polygon fill="#dc2626" stroke="#dc2626" stroke-width="2.2" points="438.76,-584.45 445.76,-582 438.76,-579.55 438.76,-584.45"/>
<text text-anchor="middle" x="392" y="-566.8" font-family="Arial" font-size="9.00" fill="#dc2626">uses source</text>
</g>
<!-- control_C003 -->
<g id="node10" class="node">
<title>control_C003</title>
<path fill="#fecaca" stroke="#dc2626" d="M524,-529C524,-529 458,-529 458,-529 452,-529 446,-523 446,-517 446,-517 446,-499 446,-499 446,-493 452,-487 458,-487 458,-487 524,-487 524,-487 530,-487 536,-493 536,-499 536,-499 536,-517 536,-517 536,-523 530,-529 524,-529"/>
<text text-anchor="middle" x="491" y="-511.2" font-family="Arial" font-size="11.00">C003</text>
<text text-anchor="middle" x="491" y="-499.2" font-family="Arial" font-size="11.00">control seen=0</text>
</g>
<!-- lost_source&#45;&gt;control_C003 -->
<g id="edge13" class="edge">
<title>lost_source&#45;&gt;control_C003</title>
<path fill="none" stroke="#dc2626" stroke-width="2.2" stroke-dasharray="5,2" d="M338.25,-452C401.23,-452 506.97,-452 506.97,-452 506.97,-452 506.97,-479.83 506.97,-479.83"/>
<polygon fill="#dc2626" stroke="#dc2626" stroke-width="2.2" points="504.52,-479.83 506.97,-486.83 509.42,-479.83 504.52,-479.83"/>
<text text-anchor="middle" x="392" y="-502.8" font-family="Arial" font-size="9.00" fill="#dc2626">uses source</text>
</g>
<!-- control_C004 -->
<g id="node13" class="node">
<title>control_C004</title>
<path fill="#fecaca" stroke="#dc2626" d="M524,-241C524,-241 458,-241 458,-241 452,-241 446,-235 446,-229 446,-229 446,-211 446,-211 446,-205 452,-199 458,-199 458,-199 524,-199 524,-199 530,-199 536,-205 536,-211 536,-211 536,-229 536,-229 536,-235 530,-241 524,-241"/>
<text text-anchor="middle" x="491" y="-223.2" font-family="Arial" font-size="11.00">C004</text>
<text text-anchor="middle" x="491" y="-211.2" font-family="Arial" font-size="11.00">control seen=0</text>
</g>
<!-- lost_source&#45;&gt;control_C004 -->
<g id="edge18" class="edge">
<title>lost_source&#45;&gt;control_C004</title>
<path fill="none" stroke="#dc2626" stroke-width="2.2" stroke-dasharray="5,2" d="M307.97,-416.7C307.97,-361.85 307.97,-220 307.97,-220 307.97,-220 438.76,-220 438.76,-220"/>
<polygon fill="#dc2626" stroke="#dc2626" stroke-width="2.2" points="438.76,-222.45 445.76,-220 438.76,-217.55 438.76,-222.45"/>
<text text-anchor="middle" x="392" y="-273.8" font-family="Arial" font-size="9.00" fill="#dc2626">uses source</text>
</g>
<!-- control_C007 -->
<g id="node16" class="node">
<title>control_C007</title>
<path fill="#fecaca" stroke="#dc2626" d="M524,-167C524,-167 458,-167 458,-167 452,-167 446,-161 446,-155 446,-155 446,-137 446,-137 446,-131 452,-125 458,-125 458,-125 524,-125 524,-125 530,-125 536,-131 536,-137 536,-137 536,-155 536,-155 536,-161 530,-167 524,-167"/>
<text text-anchor="middle" x="491" y="-149.2" font-family="Arial" font-size="11.00">C007</text>
<text text-anchor="middle" x="491" y="-137.2" font-family="Arial" font-size="11.00">control seen=0</text>
</g>
<!-- lost_source&#45;&gt;control_C007 -->
<g id="edge23" class="edge">
<title>lost_source&#45;&gt;control_C007</title>
<path fill="none" stroke="#dc2626" stroke-width="2.2" stroke-dasharray="5,2" d="M277.97,-416.53C277.97,-349.09 277.97,-146 277.97,-146 277.97,-146 438.82,-146 438.82,-146"/>
<polygon fill="#dc2626" stroke="#dc2626" stroke-width="2.2" points="438.82,-148.45 445.82,-146 438.82,-143.55 438.82,-148.45"/>
<text text-anchor="middle" x="392" y="-178.8" font-family="Arial" font-size="9.00" fill="#dc2626">uses source</text>
</g>
<!-- control_C008 -->
<g id="node19" class="node">
<title>control_C008</title>
<path fill="#fecaca" stroke="#dc2626" d="M524,-389C524,-389 458,-389 458,-389 452,-389 446,-383 446,-377 446,-377 446,-359 446,-359 446,-353 452,-347 458,-347 458,-347 524,-347 524,-347 530,-347 536,-353 536,-359 536,-359 536,-377 536,-377 536,-383 530,-389 524,-389"/>
<text text-anchor="middle" x="491" y="-371.2" font-family="Arial" font-size="11.00">C008</text>
<text text-anchor="middle" x="491" y="-359.2" font-family="Arial" font-size="11.00">control seen=0</text>
</g>
<!-- lost_source&#45;&gt;control_C008 -->
<g id="edge28" class="edge">
<title>lost_source&#45;&gt;control_C008</title>
<path fill="none" stroke="#dc2626" stroke-width="2.2" stroke-dasharray="5,2" d="M338.1,-424C392.72,-424 476.97,-424 476.97,-424 476.97,-424 476.97,-396.17 476.97,-396.17"/>
<polygon fill="#dc2626" stroke="#dc2626" stroke-width="2.2" points="479.42,-396.17 476.97,-389.17 474.52,-396.17 479.42,-396.17"/>
<text text-anchor="middle" x="392" y="-389.8" font-family="Arial" font-size="9.00" fill="#dc2626">uses source</text>
</g>
<!-- metrics -->
<g id="node4" class="node">
<title>metrics</title>
<ellipse fill="#fee2e2" stroke="#334155" cx="1236.98" cy="-438" rx="57.97" ry="55.31"/>
<text text-anchor="middle" x="1236.98" y="-459.2" font-family="Arial" font-size="11.00">Score impact</text>
<text text-anchor="middle" x="1236.98" y="-447.2" font-family="Arial" font-size="11.00">LC=90.74</text>
<text text-anchor="middle" x="1236.98" y="-435.2" font-family="Arial" font-size="11.00">CAC=64.0</text>
<text text-anchor="middle" x="1236.98" y="-423.2" font-family="Arial" font-size="11.00">MDC=61.54</text>
<text text-anchor="middle" x="1236.98" y="-411.2" font-family="Arial" font-size="11.00">SACI=78.53</text>
</g>
<!-- wazuh&#45;&gt;metrics -->
<g id="edge33" class="edge">
<title>wazuh&#45;&gt;metrics</title>
<path fill="none" stroke="#dc2626" stroke-width="2.5" d="M1048.08,-438C1048.08,-438 1171.58,-438 1171.58,-438"/>
<polygon fill="#dc2626" stroke="#dc2626" stroke-width="2.5" points="1171.58,-440.45 1178.58,-438 1171.58,-435.55 1171.58,-440.45"/>
<text text-anchor="middle" x="1113.5" y="-440.8" font-family="Arial" font-size="9.00" fill="#dc2626">missing evidence</text>
</g>
<!-- rule_110006 -->
<g id="node6" class="node">
<title>rule_110006</title>
<path fill="#fee2e2" stroke="#dc2626" d="M743.5,-809C743.5,-809 687.5,-809 687.5,-809 681.5,-809 675.5,-803 675.5,-797 675.5,-797 675.5,-779 675.5,-779 675.5,-773 681.5,-767 687.5,-767 687.5,-767 743.5,-767 743.5,-767 749.5,-767 755.5,-773 755.5,-779 755.5,-779 755.5,-797 755.5,-797 755.5,-803 749.5,-809 743.5,-809"/>
<text text-anchor="middle" x="715.5" y="-791.2" font-family="Arial" font-size="11.00">Rule 110006</text>
<text text-anchor="middle" x="715.5" y="-779.2" font-family="Arial" font-size="11.00">missing alert</text>
</g>
<!-- control_C001&#45;&gt;rule_110006 -->
<g id="edge4" class="edge">
<title>control_C001&#45;&gt;rule_110006</title>
<path fill="none" stroke="#dc2626" stroke-width="2.2" stroke-dasharray="5,2" d="M536.16,-788C536.16,-788 668.31,-788 668.31,-788"/>
<polygon fill="#dc2626" stroke="#dc2626" stroke-width="2.2" points="668.31,-790.45 675.31,-788 668.31,-785.55 668.31,-790.45"/>
<text text-anchor="middle" x="605.5" y="-790.8" font-family="Arial" font-size="9.00" fill="#dc2626">no alert</text>
</g>
<!-- mitre_T1071.004 -->
<g id="node7" class="node">
<title>mitre_T1071.004</title>
<path fill="#f3e8ff" stroke="#334155" d="M877,-705C877,-705 797,-705 797,-705 791,-705 785,-699 785,-693 785,-693 785,-675 785,-675 785,-669 791,-663 797,-663 797,-663 877,-663 877,-663 883,-663 889,-669 889,-675 889,-675 889,-693 889,-693 889,-699 883,-705 877,-705"/>
<text text-anchor="middle" x="837" y="-687.2" font-family="Arial" font-size="11.00">T1071.004</text>
<text text-anchor="middle" x="837" y="-675.2" font-family="Arial" font-size="11.00">coverage affected</text>
</g>
<!-- control_C001&#45;&gt;mitre_T1071.004 -->
<g id="edge5" class="edge">
<title>control_C001&#45;&gt;mitre_T1071.004</title>
<path fill="none" stroke="#dc2626" stroke-width="2.2" stroke-dasharray="5,2" d="M476.97,-766.95C476.97,-738.42 476.97,-691 476.97,-691 476.97,-691 777.65,-691 777.65,-691"/>
<polygon fill="#dc2626" stroke="#dc2626" stroke-width="2.2" points="777.65,-693.45 784.65,-691 777.65,-688.55 777.65,-693.45"/>
<text text-anchor="middle" x="605.5" y="-860.8" font-family="Arial" font-size="9.00" fill="#dc2626">MITRE visibility gap</text>
</g>
<!-- rule_110006&#45;&gt;wazuh -->
<g id="edge6" class="edge">
<title>rule_110006&#45;&gt;wazuh</title>
<path fill="none" stroke="#dc2626" stroke-width="2.2" stroke-dasharray="5,2" d="M755.69,-788C830.58,-788 983.97,-788 983.97,-788 983.97,-788 983.97,-466.11 983.97,-466.11"/>
<polygon fill="#dc2626" stroke="#dc2626" stroke-width="2.2" points="986.42,-466.11 983.97,-459.11 981.52,-466.11 986.42,-466.11"/>
<text text-anchor="middle" x="837" y="-649.8" font-family="Arial" font-size="9.00" fill="#dc2626">not alerted</text>
</g>
<!-- mitre_T1071.004&#45;&gt;metrics -->
<g id="edge7" class="edge">
<title>mitre_T1071.004&#45;&gt;metrics</title>
<path fill="none" stroke="#dc2626" stroke-width="2.2" d="M889.17,-677C993.51,-677 1217.97,-677 1217.97,-677 1217.97,-677 1217.97,-497.15 1217.97,-497.15"/>
<polygon fill="#dc2626" stroke="#dc2626" stroke-width="2.2" points="1220.42,-497.15 1217.97,-490.15 1215.52,-497.15 1220.42,-497.15"/>
<text text-anchor="middle" x="983" y="-604.8" font-family="Arial" font-size="9.00" fill="#dc2626">MDC/CAC impact</text>
</g>
<!-- mitre_T1071.004&#45;&gt;metrics -->
<g id="edge12" class="edge">
<title>mitre_T1071.004&#45;&gt;metrics</title>
<path fill="none" stroke="#dc2626" stroke-width="2.2" d="M889.34,-691C1001.92,-691 1256.97,-691 1256.97,-691 1256.97,-691 1256.97,-496.81 1256.97,-496.81"/>
<polygon fill="#dc2626" stroke="#dc2626" stroke-width="2.2" points="1259.42,-496.81 1256.97,-489.81 1254.52,-496.81 1259.42,-496.81"/>
<text text-anchor="middle" x="983" y="-679.8" font-family="Arial" font-size="9.00" fill="#dc2626">MDC/CAC impact</text>
</g>
<!-- control_C002&#45;&gt;mitre_T1071.004 -->
<g id="edge10" class="edge">
<title>control_C002&#45;&gt;mitre_T1071.004</title>
<path fill="none" stroke="#dc2626" stroke-width="2.2" stroke-dasharray="5,2" d="M506.97,-603.08C506.97,-631.07 506.97,-677 506.97,-677 506.97,-677 777.71,-677 777.71,-677"/>
<polygon fill="#dc2626" stroke="#dc2626" stroke-width="2.2" points="777.71,-679.45 784.71,-677 777.71,-674.55 777.71,-679.45"/>
<text text-anchor="middle" x="605.5" y="-720.8" font-family="Arial" font-size="9.00" fill="#dc2626">MITRE visibility gap</text>
</g>
<!-- rule_110005 -->
<g id="node9" class="node">
<title>rule_110005</title>
<path fill="#fee2e2" stroke="#dc2626" d="M743.5,-603C743.5,-603 687.5,-603 687.5,-603 681.5,-603 675.5,-597 675.5,-591 675.5,-591 675.5,-573 675.5,-573 675.5,-567 681.5,-561 687.5,-561 687.5,-561 743.5,-561 743.5,-561 749.5,-561 755.5,-567 755.5,-573 755.5,-573 755.5,-591 755.5,-591 755.5,-597 749.5,-603 743.5,-603"/>
<text text-anchor="middle" x="715.5" y="-585.2" font-family="Arial" font-size="11.00">Rule 110005</text>
<text text-anchor="middle" x="715.5" y="-573.2" font-family="Arial" font-size="11.00">missing alert</text>
</g>
<!-- control_C002&#45;&gt;rule_110005 -->
<g id="edge9" class="edge">
<title>control_C002&#45;&gt;rule_110005</title>
<path fill="none" stroke="#dc2626" stroke-width="2.2" stroke-dasharray="5,2" d="M536.16,-582C536.16,-582 668.31,-582 668.31,-582"/>
<polygon fill="#dc2626" stroke="#dc2626" stroke-width="2.2" points="668.31,-584.45 675.31,-582 668.31,-579.55 668.31,-584.45"/>
<text text-anchor="middle" x="605.5" y="-584.8" font-family="Arial" font-size="9.00" fill="#dc2626">no alert</text>
</g>
<!-- rule_110005&#45;&gt;wazuh -->
<g id="edge11" class="edge">
<title>rule_110005&#45;&gt;wazuh</title>
<path fill="none" stroke="#dc2626" stroke-width="2.2" stroke-dasharray="5,2" d="M755.52,-584.5C764.26,-584.5 770.97,-584.5 770.97,-584.5 770.97,-584.5 770.97,-445 770.97,-445 770.97,-445 910.94,-445 910.94,-445"/>
<polygon fill="#dc2626" stroke="#dc2626" stroke-width="2.2" points="910.94,-447.45 917.94,-445 910.94,-442.55 910.94,-447.45"/>
<text text-anchor="middle" x="837" y="-549.8" font-family="Arial" font-size="9.00" fill="#dc2626">not alerted</text>
</g>
<!-- rule_92057 -->
<g id="node11" class="node">
<title>rule_92057</title>
<path fill="#fee2e2" stroke="#dc2626" d="M743,-529C743,-529 688,-529 688,-529 682,-529 676,-523 676,-517 676,-517 676,-499 676,-499 676,-493 682,-487 688,-487 688,-487 743,-487 743,-487 749,-487 755,-493 755,-499 755,-499 755,-517 755,-517 755,-523 749,-529 743,-529"/>
<text text-anchor="middle" x="715.5" y="-511.2" font-family="Arial" font-size="11.00">Rule 92057</text>
<text text-anchor="middle" x="715.5" y="-499.2" font-family="Arial" font-size="11.00">missing alert</text>
</g>
<!-- control_C003&#45;&gt;rule_92057 -->
<g id="edge14" class="edge">
<title>control_C003&#45;&gt;rule_92057</title>
<path fill="none" stroke="#dc2626" stroke-width="2.2" stroke-dasharray="5,2" d="M536.16,-508C536.16,-508 668.67,-508 668.67,-508"/>
<polygon fill="#dc2626" stroke="#dc2626" stroke-width="2.2" points="668.67,-510.45 675.67,-508 668.67,-505.55 668.67,-510.45"/>
<text text-anchor="middle" x="605.5" y="-510.8" font-family="Arial" font-size="9.00" fill="#dc2626">no alert</text>
</g>
<!-- mitre_T1059.001 -->
<g id="node12" class="node">
<title>mitre_T1059.001</title>
<path fill="#f3e8ff" stroke="#334155" d="M877,-608C877,-608 797,-608 797,-608 791,-608 785,-602 785,-596 785,-596 785,-578 785,-578 785,-572 791,-566 797,-566 797,-566 877,-566 877,-566 883,-566 889,-572 889,-578 889,-578 889,-596 889,-596 889,-602 883,-608 877,-608"/>
<text text-anchor="middle" x="837" y="-590.2" font-family="Arial" font-size="11.00">T1059.001</text>
<text text-anchor="middle" x="837" y="-578.2" font-family="Arial" font-size="11.00">coverage affected</text>
</g>
<!-- control_C003&#45;&gt;mitre_T1059.001 -->
<g id="edge15" class="edge">
<title>control_C003&#45;&gt;mitre_T1059.001</title>
<path fill="none" stroke="#dc2626" stroke-width="2.2" stroke-dasharray="5,2" d="M491.97,-529.09C491.97,-537.4 491.97,-545 491.97,-545 491.97,-545 837.97,-545 837.97,-545 837.97,-545 837.97,-559 837.97,-559"/>
<polygon fill="#dc2626" stroke="#dc2626" stroke-width="2.2" points="835.52,-559 837.97,-566 840.42,-559 835.52,-559"/>
<text text-anchor="middle" x="605.5" y="-654.8" font-family="Arial" font-size="9.00" fill="#dc2626">MITRE visibility gap</text>
</g>
<!-- rule_92057&#45;&gt;wazuh -->
<g id="edge16" class="edge">
<title>rule_92057&#45;&gt;wazuh</title>
<path fill="none" stroke="#dc2626" stroke-width="2.2" stroke-dasharray="5,2" d="M715.97,-487C715.97,-466.38 715.97,-438 715.97,-438 715.97,-438 910.68,-438 910.68,-438"/>
<polygon fill="#dc2626" stroke="#dc2626" stroke-width="2.2" points="910.68,-440.45 917.68,-438 910.68,-435.55 910.68,-440.45"/>
<text text-anchor="middle" x="837" y="-495.8" font-family="Arial" font-size="9.00" fill="#dc2626">not alerted</text>
</g>
<!-- mitre_T1059.001&#45;&gt;metrics -->
<g id="edge17" class="edge">
<title>mitre_T1059.001&#45;&gt;metrics</title>
<path fill="none" stroke="#dc2626" stroke-width="2.2" d="M863.97,-565.82C863.97,-532.86 863.97,-473 863.97,-473 863.97,-473 1184.99,-473 1184.99,-473"/>
<polygon fill="#dc2626" stroke="#dc2626" stroke-width="2.2" points="1184.99,-475.45 1191.99,-473 1184.99,-470.55 1184.99,-475.45"/>
<text text-anchor="middle" x="983" y="-528.8" font-family="Arial" font-size="9.00" fill="#dc2626">MDC/CAC impact</text>
</g>
<!-- rule_92052 -->
<g id="node14" class="node">
<title>rule_92052</title>
<path fill="#fee2e2" stroke="#dc2626" d="M743,-241C743,-241 688,-241 688,-241 682,-241 676,-235 676,-229 676,-229 676,-211 676,-211 676,-205 682,-199 688,-199 688,-199 743,-199 743,-199 749,-199 755,-205 755,-211 755,-211 755,-229 755,-229 755,-235 749,-241 743,-241"/>
<text text-anchor="middle" x="715.5" y="-223.2" font-family="Arial" font-size="11.00">Rule 92052</text>
<text text-anchor="middle" x="715.5" y="-211.2" font-family="Arial" font-size="11.00">missing alert</text>
</g>
<!-- control_C004&#45;&gt;rule_92052 -->
<g id="edge19" class="edge">
<title>control_C004&#45;&gt;rule_92052</title>
<path fill="none" stroke="#dc2626" stroke-width="2.2" stroke-dasharray="5,2" d="M536.16,-220C536.16,-220 668.67,-220 668.67,-220"/>
<polygon fill="#dc2626" stroke="#dc2626" stroke-width="2.2" points="668.67,-222.45 675.67,-220 668.67,-217.55 668.67,-222.45"/>
<text text-anchor="middle" x="605.5" y="-222.8" font-family="Arial" font-size="9.00" fill="#dc2626">no alert</text>
</g>
<!-- mitre_T1059.003 -->
<g id="node15" class="node">
<title>mitre_T1059.003</title>
<path fill="#f3e8ff" stroke="#334155" d="M1023,-241C1023,-241 943,-241 943,-241 937,-241 931,-235 931,-229 931,-229 931,-211 931,-211 931,-205 937,-199 943,-199 943,-199 1023,-199 1023,-199 1029,-199 1035,-205 1035,-211 1035,-211 1035,-229 1035,-229 1035,-235 1029,-241 1023,-241"/>
<text text-anchor="middle" x="983" y="-223.2" font-family="Arial" font-size="11.00">T1059.003</text>
<text text-anchor="middle" x="983" y="-211.2" font-family="Arial" font-size="11.00">coverage affected</text>
</g>
<!-- control_C004&#45;&gt;mitre_T1059.003 -->
<g id="edge20" class="edge">
<title>control_C004&#45;&gt;mitre_T1059.003</title>
<path fill="none" stroke="#dc2626" stroke-width="2.2" stroke-dasharray="5,2" d="M491.97,-198.91C491.97,-190.6 491.97,-183 491.97,-183 491.97,-183 983.97,-183 983.97,-183 983.97,-183 983.97,-191.91 983.97,-191.91"/>
<polygon fill="#dc2626" stroke="#dc2626" stroke-width="2.2" points="981.52,-191.91 983.97,-198.91 986.42,-191.91 981.52,-191.91"/>
<text text-anchor="middle" x="715.5" y="-85.8" font-family="Arial" font-size="9.00" fill="#dc2626">MITRE visibility gap</text>
</g>
<!-- rule_92052&#45;&gt;wazuh -->
<g id="edge21" class="edge">
<title>rule_92052&#45;&gt;wazuh</title>
<path fill="none" stroke="#dc2626" stroke-width="2.2" stroke-dasharray="5,2" d="M755.39,-220C816.17,-220 924.97,-220 924.97,-220 924.97,-220 924.97,-409.7 924.97,-409.7"/>
<polygon fill="#dc2626" stroke="#dc2626" stroke-width="2.2" points="922.52,-409.7 924.97,-416.7 927.42,-409.7 922.52,-409.7"/>
<text text-anchor="middle" x="837" y="-255.8" font-family="Arial" font-size="9.00" fill="#dc2626">not alerted</text>
</g>
<!-- mitre_T1059.003&#45;&gt;metrics -->
<g id="edge22" class="edge">
<title>mitre_T1059.003&#45;&gt;metrics</title>
<path fill="none" stroke="#dc2626" stroke-width="2.2" d="M1035.21,-220C1109.8,-220 1237.97,-220 1237.97,-220 1237.97,-220 1237.97,-375.71 1237.97,-375.71"/>
<polygon fill="#dc2626" stroke="#dc2626" stroke-width="2.2" points="1235.52,-375.71 1237.97,-382.71 1240.42,-375.71 1235.52,-375.71"/>
<text text-anchor="middle" x="1113.5" y="-235.8" font-family="Arial" font-size="9.00" fill="#dc2626">MDC/CAC impact</text>
</g>
<!-- rule_110010 -->
<g id="node17" class="node">
<title>rule_110010</title>
<path fill="#fee2e2" stroke="#dc2626" d="M743.5,-167C743.5,-167 687.5,-167 687.5,-167 681.5,-167 675.5,-161 675.5,-155 675.5,-155 675.5,-137 675.5,-137 675.5,-131 681.5,-125 687.5,-125 687.5,-125 743.5,-125 743.5,-125 749.5,-125 755.5,-131 755.5,-137 755.5,-137 755.5,-155 755.5,-155 755.5,-161 749.5,-167 743.5,-167"/>
<text text-anchor="middle" x="715.5" y="-149.2" font-family="Arial" font-size="11.00">Rule 110010</text>
<text text-anchor="middle" x="715.5" y="-137.2" font-family="Arial" font-size="11.00">missing alert</text>
</g>
<!-- control_C007&#45;&gt;rule_110010 -->
<g id="edge24" class="edge">
<title>control_C007&#45;&gt;rule_110010</title>
<path fill="none" stroke="#dc2626" stroke-width="2.2" stroke-dasharray="5,2" d="M536.16,-146C536.16,-146 668.31,-146 668.31,-146"/>
<polygon fill="#dc2626" stroke="#dc2626" stroke-width="2.2" points="668.31,-148.45 675.31,-146 668.31,-143.55 668.31,-148.45"/>
<text text-anchor="middle" x="605.5" y="-148.8" font-family="Arial" font-size="9.00" fill="#dc2626">no alert</text>
</g>
<!-- mitre_T1087 -->
<g id="node18" class="node">
<title>mitre_T1087</title>
<path fill="#f3e8ff" stroke="#334155" d="M877,-42C877,-42 797,-42 797,-42 791,-42 785,-36 785,-30 785,-30 785,-12 785,-12 785,-6 791,0 797,0 797,0 877,0 877,0 883,0 889,-6 889,-12 889,-12 889,-30 889,-30 889,-36 883,-42 877,-42"/>
<text text-anchor="middle" x="837" y="-24.2" font-family="Arial" font-size="11.00">T1087</text>
<text text-anchor="middle" x="837" y="-12.2" font-family="Arial" font-size="11.00">coverage affected</text>
</g>
<!-- control_C007&#45;&gt;mitre_T1087 -->
<g id="edge25" class="edge">
<title>control_C007&#45;&gt;mitre_T1087</title>
<path fill="none" stroke="#dc2626" stroke-width="2.2" stroke-dasharray="5,2" d="M491.97,-124.8C491.97,-89.13 491.97,-21 491.97,-21 491.97,-21 777.97,-21 777.97,-21"/>
<polygon fill="#dc2626" stroke="#dc2626" stroke-width="2.2" points="777.97,-23.45 784.97,-21 777.97,-18.55 777.97,-23.45"/>
<text text-anchor="middle" x="605.5" y="-4.8" font-family="Arial" font-size="9.00" fill="#dc2626">MITRE visibility gap</text>
</g>
<!-- rule_110010&#45;&gt;wazuh -->
<g id="edge26" class="edge">
<title>rule_110010&#45;&gt;wazuh</title>
<path fill="none" stroke="#dc2626" stroke-width="2.2" stroke-dasharray="5,2" d="M755.71,-146C817.31,-146 927.97,-146 927.97,-146 927.97,-146 927.97,-409.53 927.97,-409.53"/>
<polygon fill="#dc2626" stroke="#dc2626" stroke-width="2.2" points="925.52,-409.53 927.97,-416.53 930.42,-409.53 925.52,-409.53"/>
<text text-anchor="middle" x="837" y="-168.8" font-family="Arial" font-size="9.00" fill="#dc2626">not alerted</text>
</g>
<!-- mitre_T1087&#45;&gt;metrics -->
<g id="edge27" class="edge">
<title>mitre_T1087&#45;&gt;metrics</title>
<path fill="none" stroke="#dc2626" stroke-width="2.2" d="M811.97,-42.06C811.97,-122.75 811.97,-407.67 811.97,-407.67 811.97,-407.67 1181.23,-407.67 1181.23,-407.67"/>
<polygon fill="#dc2626" stroke="#dc2626" stroke-width="2.2" points="1181.23,-410.12 1188.23,-407.67 1181.23,-405.22 1181.23,-410.12"/>
<text text-anchor="middle" x="983" y="-66.8" font-family="Arial" font-size="9.00" fill="#dc2626">MDC/CAC impact</text>
</g>
<!-- rule_110011 -->
<g id="node20" class="node">
<title>rule_110011</title>
<path fill="#fee2e2" stroke="#dc2626" d="M743.5,-389C743.5,-389 687.5,-389 687.5,-389 681.5,-389 675.5,-383 675.5,-377 675.5,-377 675.5,-359 675.5,-359 675.5,-353 681.5,-347 687.5,-347 687.5,-347 743.5,-347 743.5,-347 749.5,-347 755.5,-353 755.5,-359 755.5,-359 755.5,-377 755.5,-377 755.5,-383 749.5,-389 743.5,-389"/>
<text text-anchor="middle" x="715.5" y="-371.2" font-family="Arial" font-size="11.00">Rule 110011</text>
<text text-anchor="middle" x="715.5" y="-359.2" font-family="Arial" font-size="11.00">missing alert</text>
</g>
<!-- control_C008&#45;&gt;rule_110011 -->
<g id="edge29" class="edge">
<title>control_C008&#45;&gt;rule_110011</title>
<path fill="none" stroke="#dc2626" stroke-width="2.2" stroke-dasharray="5,2" d="M536.16,-368C536.16,-368 668.31,-368 668.31,-368"/>
<polygon fill="#dc2626" stroke="#dc2626" stroke-width="2.2" points="668.31,-370.45 675.31,-368 668.31,-365.55 668.31,-370.45"/>
<text text-anchor="middle" x="605.5" y="-370.8" font-family="Arial" font-size="9.00" fill="#dc2626">no alert</text>
</g>
<!-- mitre_T1482 -->
<g id="node21" class="node">
<title>mitre_T1482</title>
<path fill="#f3e8ff" stroke="#334155" d="M1023,-362C1023,-362 943,-362 943,-362 937,-362 931,-356 931,-350 931,-350 931,-332 931,-332 931,-326 937,-320 943,-320 943,-320 1023,-320 1023,-320 1029,-320 1035,-326 1035,-332 1035,-332 1035,-350 1035,-350 1035,-356 1029,-362 1023,-362"/>
<text text-anchor="middle" x="983" y="-344.2" font-family="Arial" font-size="11.00">T1482</text>
<text text-anchor="middle" x="983" y="-332.2" font-family="Arial" font-size="11.00">coverage affected</text>
</g>
<!-- control_C008&#45;&gt;mitre_T1482 -->
<g id="edge30" class="edge">
<title>control_C008&#45;&gt;mitre_T1482</title>
<path fill="none" stroke="#dc2626" stroke-width="2.2" stroke-dasharray="5,2" d="M491.97,-346.74C491.97,-339.64 491.97,-333.5 491.97,-333.5 491.97,-333.5 923.92,-333.5 923.92,-333.5"/>
<polygon fill="#dc2626" stroke="#dc2626" stroke-width="2.2" points="923.92,-335.95 930.92,-333.5 923.92,-331.05 923.92,-335.95"/>
<text text-anchor="middle" x="715.5" y="-307.8" font-family="Arial" font-size="9.00" fill="#dc2626">MITRE visibility gap</text>
</g>
<!-- rule_110011&#45;&gt;wazuh -->
<g id="edge31" class="edge">
<title>rule_110011&#45;&gt;wazuh</title>
<path fill="none" stroke="#dc2626" stroke-width="2.2" stroke-dasharray="5,2" d="M755.8,-372.42C815.88,-372.42 921.97,-372.42 921.97,-372.42 921.97,-372.42 921.97,-409.89 921.97,-409.89"/>
<polygon fill="#dc2626" stroke="#dc2626" stroke-width="2.2" points="919.52,-409.89 921.97,-416.89 924.42,-409.89 919.52,-409.89"/>
<text text-anchor="middle" x="837" y="-389.8" font-family="Arial" font-size="9.00" fill="#dc2626">not alerted</text>
</g>
<!-- mitre_T1482&#45;&gt;metrics -->
<g id="edge32" class="edge">
<title>mitre_T1482&#45;&gt;metrics</title>
<path fill="none" stroke="#dc2626" stroke-width="2.2" d="M983.97,-362.02C983.97,-378.39 983.97,-398.33 983.97,-398.33 983.97,-398.33 1189.61,-398.33 1189.61,-398.33"/>
<polygon fill="#dc2626" stroke="#dc2626" stroke-width="2.2" points="1189.61,-400.78 1196.61,-398.33 1189.61,-395.88 1189.61,-400.78"/>
<text text-anchor="middle" x="1113.5" y="-356.8" font-family="Arial" font-size="9.00" fill="#dc2626">MDC/CAC impact</text>
</g>
</g>
</svg>
