<?xml version="1.0" encoding="UTF-8" standalone="no"?>
<!DOCTYPE svg PUBLIC "-//W3C//DTD SVG 1.1//EN"
 "http://www.w3.org/Graphics/SVG/1.1/DTD/svg11.dtd">
<!-- Generated by graphviz version 2.43.0 (0)
 -->
<!-- Title: G Pages: 1 -->
<svg width="1263pt" height="264pt"
 viewBox="0.00 0.00 1262.61 264.00" xmlns="http://www.w3.org/2000/svg" xmlns:xlink="http://www.w3.org/1999/xlink">
<g id="graph0" class="graph" transform="scale(1 1) rotate(0) translate(4 260)">
<title>G</title>
<polygon fill="white" stroke="transparent" points="-4,4 -4,-260 1258.61,-260 1258.61,4 -4,4"/>
<text text-anchor="middle" x="627.3" y="-236" font-family="Arial" font-size="20.00">SACI Evaluation Scenario Taxonomy</text>
<!-- baseline -->
<g id="node1" class="node">
<title>baseline</title>
<path fill="#e5e7eb" stroke="#334155" d="M94,-140C94,-140 12,-140 12,-140 6,-140 0,-134 0,-128 0,-128 0,-98 0,-98 0,-92 6,-86 12,-86 12,-86 94,-86 94,-86 100,-86 106,-92 106,-98 106,-98 106,-128 106,-128 106,-134 100,-140 94,-140"/>
<text text-anchor="middle" x="53" y="-122.2" font-family="Arial" font-size="11.00">Baseline</text>
<text text-anchor="middle" x="53" y="-110.2" font-family="Arial" font-size="11.00">S0&#45;S2</text>
<text text-anchor="middle" x="53" y="-98.2" font-family="Arial" font-size="11.00">No/limited visibility</text>
</g>
<!-- progression -->
<g id="node2" class="node">
<title>progression</title>
<path fill="#dbeafe" stroke="#334155" d="M382,-140C382,-140 251,-140 251,-140 245,-140 239,-134 239,-128 239,-128 239,-98 239,-98 239,-92 245,-86 251,-86 251,-86 382,-86 382,-86 388,-86 394,-92 394,-98 394,-98 394,-128 394,-128 394,-134 388,-140 382,-140"/>
<text text-anchor="middle" x="316.5" y="-122.2" font-family="Arial" font-size="11.00">Visibility progression</text>
<text text-anchor="middle" x="316.5" y="-110.2" font-family="Arial" font-size="11.00">S3&#45;S6</text>
<text text-anchor="middle" x="316.5" y="-98.2" font-family="Arial" font-size="11.00">DC / endpoint / firewall / CTI</text>
</g>
<!-- baseline&#45;&gt;progression -->
<g id="edge1" class="edge">
<title>baseline&#45;&gt;progression</title>
<path fill="none" stroke="#475569" stroke-width="1.4" d="M106.01,-113C106.01,-113 231.85,-113 231.85,-113"/>
<polygon fill="#475569" stroke="#475569" stroke-width="1.4" points="231.85,-115.45 238.85,-113 231.85,-110.55 231.85,-115.45"/>
<text text-anchor="middle" x="172.5" y="-115.8" font-family="Arial" font-size="9.00" fill="#475569">visibility increases</text>
</g>
<!-- final -->
<g id="node3" class="node">
<title>final</title>
<ellipse fill="#dcfce7" stroke="#334155" cx="641.8" cy="-113" rx="89.61" ry="38.37"/>
<text text-anchor="middle" x="641.8" y="-122.2" font-family="Arial" font-size="11.00">Final closure</text>
<text text-anchor="middle" x="641.8" y="-110.2" font-family="Arial" font-size="11.00">S8</text>
<text text-anchor="middle" x="641.8" y="-98.2" font-family="Arial" font-size="11.00">SACI=100 / missing=0</text>
</g>
<!-- progression&#45;&gt;final -->
<g id="edge2" class="edge">
<title>progression&#45;&gt;final</title>
<path fill="none" stroke="#475569" stroke-width="1.4" d="M394,-113C394,-113 544.93,-113 544.93,-113"/>
<polygon fill="#475569" stroke="#475569" stroke-width="1.4" points="544.93,-115.45 551.93,-113 544.93,-110.55 544.93,-115.45"/>
<text text-anchor="middle" x="473" y="-115.8" font-family="Arial" font-size="9.00" fill="#475569">expected relations close</text>
</g>
<!-- regression -->
<g id="node4" class="node">
<title>regression</title>
<path fill="#fee2e2" stroke="#334155" d="M998.61,-226C998.61,-226 883.61,-226 883.61,-226 877.61,-226 871.61,-220 871.61,-214 871.61,-214 871.61,-184 871.61,-184 871.61,-178 877.61,-172 883.61,-172 883.61,-172 998.61,-172 998.61,-172 1004.61,-172 1010.61,-178 1010.61,-184 1010.61,-184 1010.61,-214 1010.61,-214 1010.61,-220 1004.61,-226 998.61,-226"/>
<text text-anchor="middle" x="941.11" y="-208.2" font-family="Arial" font-size="11.00">Visibility regression</text>
<text text-anchor="middle" x="941.11" y="-196.2" font-family="Arial" font-size="11.00">S7A&#45;S7B</text>
<text text-anchor="middle" x="941.11" y="-184.2" font-family="Arial" font-size="11.00">critical vs non&#45;critical loss</text>
</g>
<!-- final&#45;&gt;regression -->
<g id="edge3" class="edge">
<title>final&#45;&gt;regression</title>
<path fill="none" stroke="#dc2626" stroke-width="2.2" stroke-dasharray="5,2" d="M688.65,-145.59C772.97,-145.59 941.61,-145.59 941.61,-145.59 941.61,-145.59 941.61,-164.98 941.61,-164.98"/>
<polygon fill="#dc2626" stroke="#dc2626" stroke-width="2.2" points="939.16,-164.98 941.61,-171.98 944.06,-164.98 939.16,-164.98"/>
<text text-anchor="middle" x="790.61" y="-201.8" font-family="Arial" font-size="9.00" fill="#dc2626">controlled loss</text>
</g>
<!-- faults -->
<g id="node5" class="node">
<title>faults</title>
<path fill="#ffedd5" stroke="#334155" d="M1020.61,-140C1020.61,-140 861.61,-140 861.61,-140 855.61,-140 849.61,-134 849.61,-128 849.61,-128 849.61,-98 849.61,-98 849.61,-92 855.61,-86 861.61,-86 861.61,-86 1020.61,-86 1020.61,-86 1026.61,-86 1032.61,-92 1032.61,-98 1032.61,-98 1032.61,-128 1032.61,-128 1032.61,-134 1026.61,-140 1020.61,-140"/>
<text text-anchor="middle" x="941.11" y="-122.2" font-family="Arial" font-size="11.00">Fault injection</text>
<text text-anchor="middle" x="941.11" y="-110.2" font-family="Arial" font-size="11.00">S9&#45;S16</text>
<text text-anchor="middle" x="941.11" y="-98.2" font-family="Arial" font-size="11.00">telemetry / CTI / MITRE / rule / TF</text>
</g>
<!-- final&#45;&gt;faults -->
<g id="edge4" class="edge">
<title>final&#45;&gt;faults</title>
<path fill="none" stroke="#ea580c" stroke-width="2.2" stroke-dasharray="5,2" d="M732.01,-113C732.01,-113 842.53,-113 842.53,-113"/>
<polygon fill="#ea580c" stroke="#ea580c" stroke-width="2.2" points="842.53,-115.45 849.53,-113 842.53,-110.55 842.53,-115.45"/>
<text text-anchor="middle" x="790.61" y="-115.8" font-family="Arial" font-size="9.00" fill="#ea580c">fault injection</text>
</g>
<!-- scope -->
<g id="node7" class="node">
<title>scope</title>
<path fill="#f3e8ff" stroke="#334155" d="M993.11,-54C993.11,-54 889.11,-54 889.11,-54 883.11,-54 877.11,-48 877.11,-42 877.11,-42 877.11,-12 877.11,-12 877.11,-6 883.11,0 889.11,0 889.11,0 993.11,0 993.11,0 999.11,0 1005.11,-6 1005.11,-12 1005.11,-12 1005.11,-42 1005.11,-42 1005.11,-48 999.11,-54 993.11,-54"/>
<text text-anchor="middle" x="941.11" y="-36.2" font-family="Arial" font-size="11.00">Scope validation</text>
<text text-anchor="middle" x="941.11" y="-24.2" font-family="Arial" font-size="11.00">S18</text>
<text text-anchor="middle" x="941.11" y="-12.2" font-family="Arial" font-size="11.00">legacy control handling</text>
</g>
<!-- final&#45;&gt;scope -->
<g id="edge6" class="edge">
<title>final&#45;&gt;scope</title>
<path fill="none" stroke="#475569" stroke-width="1.4" d="M688.65,-80.41C772.97,-80.41 941.61,-80.41 941.61,-80.41 941.61,-80.41 941.61,-61.02 941.61,-61.02"/>
<polygon fill="#475569" stroke="#475569" stroke-width="1.4" points="944.06,-61.02 941.61,-54.02 939.16,-61.02 944.06,-61.02"/>
<text text-anchor="middle" x="790.61" y="-29.8" font-family="Arial" font-size="9.00" fill="#475569">scope check</text>
</g>
<!-- recovery -->
<g id="node6" class="node">
<title>recovery</title>
<path fill="#dcfce7" stroke="#334155" d="M1242.61,-140C1242.61,-140 1112.61,-140 1112.61,-140 1106.61,-140 1100.61,-134 1100.61,-128 1100.61,-128 1100.61,-98 1100.61,-98 1100.61,-92 1106.61,-86 1112.61,-86 1112.61,-86 1242.61,-86 1242.61,-86 1248.61,-86 1254.61,-92 1254.61,-98 1254.61,-98 1254.61,-128 1254.61,-128 1254.61,-134 1248.61,-140 1242.61,-140"/>
<text text-anchor="middle" x="1177.61" y="-122.2" font-family="Arial" font-size="11.00">Recovery</text>
<text text-anchor="middle" x="1177.61" y="-110.2" font-family="Arial" font-size="11.00">S17</text>
<text text-anchor="middle" x="1177.61" y="-98.2" font-family="Arial" font-size="11.00">fixed state returns to closure</text>
</g>
<!-- faults&#45;&gt;recovery -->
<g id="edge5" class="edge">
<title>faults&#45;&gt;recovery</title>
<path fill="none" stroke="#475569" stroke-width="1.4" d="M1032.88,-113C1032.88,-113 1093.45,-113 1093.45,-113"/>
<polygon fill="#475569" stroke="#475569" stroke-width="1.4" points="1093.45,-115.45 1100.45,-113 1093.45,-110.55 1093.45,-115.45"/>
<text text-anchor="middle" x="1066.61" y="-115.8" font-family="Arial" font-size="9.00" fill="#475569">fix</text>
</g>
</g>
</svg>
